<?xml version="1.0" encoding="UTF-8"?>
<svg id="Calque_2" data-name="Calque 2" xmlns="http://www.w3.org/2000/svg" viewBox="0 0 260.22 343.86">
  <defs>
    <style>
      .cls-1 {
        fill: #000;
        stroke-width: 0px;
      }
    </style>
  </defs>
  <g id="Calque_2-2" data-name="Calque 2">
    <g id="Logotype_noir">
      <g>
        <path class="cls-1" d="M129.06,331.22c-1.06.2-1.09.7-1.11,1.44-.03.77.27,1.61,1.03,1.5.45-.06,1.9-.01,1.42-1.39-.6-.38.34-1.87-1.34-1.56Z"/>
        <path class="cls-1" d="M126.75,336.32c-1.26-4.38-3,2.28-4.33-.26-.44-.75.33-1.06.72-1.47.42-.47.14-.69-.15-.99-.23-.24-.4-.28-.73-.09-1.16.62-.94,1.89-1.15,2.82-.2.93.57,1.15,1.63.8,1.75-.57,1.4.83,1.43,1.78,1.21-.01.96-1.56,1.9-1.88.69,1.64,0,3.99,2.4,4.81.64-1.18-.87-2.29.05-3.7.62-.95-.57-1.77-1.77-1.83Z"/>
        <path class="cls-1" d="M136.98,119.95c1.22-.41.72-1.45.64-2.12-.54-4.34.63-8.68,0-12.98-.3-2.04,1.19-3.95.15-6.03-.14-.29.78-1.1,1.21-1.68,1.12-.48.27-.96,0-1.44,0-.38-.02-.77-.03-1.15,1.16-1.92,1.81-3.84-.03-5.75,0-.21,0-.41.02-.62.2-.32.3-.69.43-1.04.02-.42.21-.79.72-1.07.06-.15.1-.3.08-.47-.05-.79-.64-1.56-.18-2.37-.01-.05-.03-.1-.04-.14.08-.16.18-.3.31-.46,0-.06-.07-.13-.1-.2-.59-1.25-.72-2.6-.79-3.96-.07-2.77.8-5.75-1.75-7.97-1.24-.39-.35-3.61-2.94-2.23-.18-.88-.67-1.82.43-2.48,3.7-.85,2.39-3.39,1.91-5.65-1.6-1.57-1.75-3.32-.67-5.23.12-.02.27.05.42.12,0-.02.01-.03.02-.05,0,.02,0,.03-.01.05.31.14.61.26.66-.58.18-2.94.14-5.8-1.64-8.34,2.5-4.08.66-7.61-.78-11.58-1.01-2.79-1.9-5.99-1.82-9.15.05-2.23-.75-4.23-1.36-6.27-.58-1.97.37-2.29,1.86-2.18,5.47.39,10.95.72,16.4,1.3,3.8.4,6.96,2.66,10.3,4.29,6.65,3.25,13.13,6.72,18.47,12.13,1.9,1.92,1.71,4.24,2.97,6.14,1.01,1.52,1.45,3.52,3.54,4.13.23.07.59.49.55.57-1.81,3.58,1.36,6.07,1.93,9.11.12.66.28,1.38.81,1.5.13,0,.26-.02.41-.07.15-.05.27-.11.39-.19.34-.36.44-.99.31-1.57-.14-.59-.41-1.16-.63-1.74.26,0,.49.02.71.04-.02-.03-.03-.07-.05-.1-.02-.03-.03-.05-.05-.09.3.09.55.19.77.3,1.49.37,1.91,1.41,1.13,3.05-.39.81-1.02,1.46-1.55,2.17.08.05.17.13.27.3.18.33.26,1.11-.35,1.26-.08.02-.14.02-.21.03.6,1.75,2.81,1.91,3.78,3.28-.02,1.28.41,2.66-.76,3.71,1.45,1.17-.29,2.63.35,3.88-.12.53-.3.96-.85.69,1.47,1.12.34,3.16,1.24,4.48-.61.61.04,1.22,0,1.83.03-.02.06-.04.09-.06,0,0-.09.07-.09.07.02,0,.03,0,.05.02.21.08.39.12.57.16,1.05.2,1.69-.28,1.44-1.62-.23-1.28.27-2.07.88-2.82,1.32,1.73-1.03,4.27,1.42,5.83.06.04-.79,1.1-1.66.98h0c-.14.88,1.69.4,1.05,1.42-.22.36-1.12.29-1.71.42-.17-.42-.35-.83-.52-1.25-.04,0-.07.03-.11.03-.4.1-.81-.08-1.22-.2.97.51.72,1.88,1.12,2.78.02.69.04,1.39.06,2.08,1.98-.22,3.24-2.7,5.72-1.78.54.2.67-1.89.31-2.12-2.7-1.7.29-1.81.69-2.54.47-.89,2.15-.14,2.42-1.56-.71-.24-1.6-.05-1.89-1.19-.1-.35-1.47-.72-1.31.34.16,1.02.16,1.4-.88,1.28-1-.12-1.53-.76-1.36-1.73.12-.77.34-1.07,1.54-1.1,1.82-.02,4.27-.25,4.13-3.11-.98-.07-1.97-.13-3.2-.22.51-1.12.93-2.06,1.36-3.01-.15,1.06.16,1.64.84,1.87.29-.02.61-.08,1.02-.24.6-1.9.35-3.42-1.88-3.99-.8-.71-.69-1.47-.22-2.23-.93-.5-1.04-1.38-1-2.34-.45.16-1.29-1.17-1.04-.07.39,1.75-.52,2.21-1.62,2.45-1.46.32-2.87.07-3.07-1.89.01,0,.02,0,.03.01-.77-1.54-1.84-2.81-3.28-3.76-1.03-1.98.19-3.87.38-5.77.09-.87.82-.97,1.6-1.01.08-.05.15-.1.24-.15.07.04.13.08.19.13.33-.02.64-.05.91-.15,1.16,1.3.79,2.46-.18,3.71-.32.41-.43,1.38-.16,1.73.37.47.74.03,1.03-.54.37-.74.68.17.6.25-1.48,1.4-.04,2.12.55,3.2.95,1.75-1.23,1.55-1.79,2.4,2.75,1.34,3.55-1.27,4.01-2.69.54-1.65.86-3.21,2.32-4.3.03,0,.04.02.07.03,0-.01.01-.03.02-.04.01.02.02.04.03.06.46.14.78.43.99.83,1.07-.03.74-.86.56-1.28-.48-1.15-1.64-.29-2.42-.66-.19-1.1.44-2.21.04-3.3,0,0,0,0,0,.01-3.68-.64-1.13-2.88-1.14-4.46.25-.36.53-.44.83-.33.07-.04.15-.08.22-.13-.52-.67,1.06-1.23.11-1.91-.31-.83.35-1.91-.68-2.55-.27-1.32-1.41-2.08-2.05-3.17.01-.31.09-.87,0-.9-3.54-1.18-5.06-3.91-5.75-7.31-.04-2.25,1.04-4.96-2.4-5.8-.06-.51.06-1.19-.23-1.47-2.26-2.28-4.59-4.47-6.9-6.69-.88-.85-1.7-1.99-3.06-.7-.25-.95-.58-1.79-1.52-2.29-4.44-2.33-8.88-4.66-13.28-7.04C157.09,1.58,148.27-.36,138.94.05c-5.47.24-10.96.9-16.39.55-5.37-.35-10.2,2.29-15.45,2.01-1.17-.54-2.19.2-3.28.37-2.1.31-3.51,2.26-5.7,2.32-.53-.12-1.07-.26-1.31.47-.25.17-.47.45-.74.51-2.33.48-4.02,1.84-5.29,3.79-.1.16-.38,3.54-.25,4.35.02.09-.03.19-.05.3-.44.29-.83-1.03-1.28-.03-3.9.55-.38-2.64-1.72-3.4-1.35,1.33-3.36,2.03-3.94,4.12l-.09-.1s.04.06.08.1c-2.87.73-3.93,3.68-6.29,5.23-2.08,1.38-5.23,2.88-5.85,6.15-2.45,1.36-2.27,2.85.58,5.07-.19.2-.39.4-.58.6-3.71-1.85-4.23-1.62-5.7,2.42-.64,1.77-2.73,3.36-.68,5.5.23.23-.01,1.11-.39.96-2.91-1.15-2.02,1.58-2.76,2.62-1.15-.06-1.38.59-1.29,1.57.04.6.16.98.88,1,1.36.02,1.11-1.23,1.57-1.9.44-.62.74-1.5,1.86-1.12-.13.96-1,1.85.06,3.06.56-1.1.98-2.55,2.61-1.9,2.12,1.02,1.99,2.18-.44,4.13-.86-.6,1.78-2.27-.53-2.14-.81.04-2.27,1.02-2.53,2.26-.27,1.31.33,2.03,1.89,2.18,1.15.1.7,1.14.34,1.89-.33.69-1,.67-1.15.16-.41-1.39-2.31-1.74-2.44-2.54-.62-3.88-2.53-.69-3.29-.46-1.29.38-.8,2.02-.64,3.11.17,1.29,1.04.82,1.9.53.85-.28,3.27,2.69,2.84,3.42-2.3,3.85-4.31,7.8-5.16,12.24-.22,1.13-1.18,1.2-1.75,1.38.39,1.45,3.13.49,2.19,2.96-.27.71.43.46.71.18.24-.24,1.16.17.7-.86-.27-.59-1.52-1.48-.01-2.19,1.59,1.33.16,3.35,1.12,4.83,1.39-2.46,2.79-4.92,4.19-7.39.02,0,.04,0,.06-.01,0,0,0,0,0,0,0,0,0,0,0,0-.01-.02-.02-.04-.02-.07l-.09.09c.18-.96.7-1.68,1.39-2.37.85-.87,3.23-1.06,1.45-3.29-.52-.62.49-1.05,1.13-.89,3.52.88,3.35-2.45,3.59-3.93.2-1.26.57-2.46,1.01-3.58.78-2.01,1.89-3.9,1.86-6.16,2.9.1,2.59-2.86,4-4.12,1.44-1.28,1.42-3.25,2.71-4.49,6.09-5.86,11.92-12.1,19.32-16.36,5.47-3.16,11.15-6.22,17.79-5.82,2.24.14,3.16-.61,3.41-2.44-.94.52-1.57-.45-2.35-.65.46-.49.92-.99,1.42-1.52.35.69.14,1.65.94,2.1,0-.04.01-.07.02-.11.01.05.03.09.04.14,0,0,0,0,0,0,.04-.02.07-.03.11-.06,0,0-.07.07-.08.08-.01,0-.02-.01-.03-.02,0,0,0,0,0,0,.44,1.76,1.25,3.49.97,5.34-.95,6.3-.2,12.5.76,18.71-.63,4.16.33,8.31.1,12.5-.3,5.19-.67,10.49.06,15.59.83,5.85.2,11.6.12,17.37-.03,2.88-.35,5.72.37,8.55-.09,2.83,1.35,4.03,3.7,3.07.95-1.28,1.87-3.07,2.89-.02.11.32.61.51.93.75.2.47.55.91.6,1.4.48,5.17.04,10.36.48,15.56.17,1.91.47,4.71-.55,6.08-2.85,3.85.15,2.86,2.03,2.99.03-.03.06-.05.09-.07.02-1.06-.2-2.23,1.24-2.71ZM197.23,68.14c-.57-.59-1.15-1.04-1.07-2.23,1,.38,1.53.78,1.07,2.23ZM196.21,41.7c.24-.66.82-1.2,1.25-1.79,1.18-.01,1.04,1.54,1.95,1.85.09,0,.17,0,.27,0,0,.02,0,.04.01.06.02,0,.03.01.05.01,0,.13.02.25.09.37-.69.3-.28,1.42-1.17,1.58-.73-.07-.87,1.01-.88.97-.27-1.16-2.11-1.58-1.58-3.03ZM190.4,27.67c.25.25.51.51.76.76-.92.23-.29,2.53-1.74,1.59-.67-.43.28-1.68.98-2.35ZM188.09,45.36c0-1.27,1.55-2.22,2.66-.39,1.19,1.96,1.68,1.33,1.85-1.49.54,3.08,1.35,5.02.98,7.11-1.13,2.35-3.32,1.22-5.07,1.54.24-1.53.24-1.53,2.17-2.12.22-.07.53,0,.73-.1.05-.03.09-.07.13-.11.05-.07.08-.16.07-.3-.01-.35-.29-.89-.56-.98-.8-.25-2.52,0-.4-1.22.16-.09-.57-.58-1.01-.44-1.09.37-1.01,1.43-1.36,2.43-1.01-1.35-.18-2.76-.18-3.93ZM186.49,39.41c.8-.61.87.6.29,1.23-.76.82.13,2.13-1.17,3.07-.65-1.83-.08-3.56.88-4.29ZM174.55,24.64c.37.06.69.36.96.5.21.85-.37.65-.67.75-.43.15-.84.13-.9-.45-.05-.44.06-.9.62-.81ZM150.52,15.04c.65.67,1.66.79,1.41,1.93-.04.16-.42.4-.43.38-.58-.56-1.24-1.1-.97-2.31ZM136.96,8.1c.1-.06.44.06.5.19.49,1.01.17,1.73-.89,2.18-.08-.84-.68-1.74.39-2.37ZM67.67,41.1c-.77.04-.84,2.17-1.6,1-.85-1.3-.49-3.06,1.45-3.96.12.8.24,1.58.36,2.35-.07.2-.14.41-.21.61ZM70.89,40.86c-.04-.64-.08-1.3-.11-1.95v-.03c.28.09.66.09.83.28.69.82-.26,1.15-.72,1.7ZM71.52,33.55c-.22.81.61,1.87-.57,2.47-2.15-1.36-.54-1.86.57-2.47ZM70.19,60.72c.37-1.76-1.33-2.68-1.9-3.81-.81-1.6.71-1.67.81-2.54.12-.99.75,0,1.07.11,1.56.57.42,1.22-.06,1.72-.8.83.23,1.68.37,1.78,1.75,1.15.75,1.95-.29,2.74ZM71.34,53.38c-.31-.18-.8.74-1.04-.14.03-.5.32-.67.79-.67.51,0,1.12-.05,1.05.67-.06.65-.45.35-.8.15ZM72.05,28.3c-.82.67-.25-.65-.43-1.15-.04,0-.07,0-.11,0,0,0,.09-.09.09-.09.01.02.01.05.02.08.04,0,.08,0,.11,0-.02-.04-.04-.08-.06-.13.12.02.22.04.26.11.74-.05,1.75-.98,2.06.38.48,2.12-1.23.22-1.94.79ZM77.93,30.25c-.06-1.08-.13-2.16,1.28-2.49-.09,1-.39,1.89-1.28,2.49ZM83.34,20.56c-.26-.65-1.36-1.17-.39-1.99.33-.28.75-.56,1.06-.17.73.91-.64,1.35-.67,2.16ZM84.86,17.49c-1.92.41-2.32-.22-1.27-1.85.94-.03,1.73.17,1.88,1.29-.2.19-.4.37-.61.56ZM103.08,8.87c-.4-.85-.69-1.46-.98-2.07.41-.04.83-.08,1.24-.11,1.06.83-.29,1.27-.26,2.19ZM112.93,13.84c.39-1.04.7-1.86,1.01-2.67.47,1.15,1.12,2.38-1.01,2.67ZM129.39,53.08c1.22,1.18-.91,1.16-.71,1.98-1-1.1-.86-1.8.71-1.98ZM127.3,66.92c-.66.14-.4-.49-.44-.79-.06-.42.05-.83.61-.84.51,0,.72.28.63.93-.2.19-.46.63-.8.7ZM128.62,74.33c.28.92-.15,1.05-.74,1.13-1.07.15-1.1-.79-1.4-1.36-.33-.62.3-.93.71-1.08,1.49-.55.43,1.54,1.43,1.31ZM127.59,61.72c-1.22.57-.81-1.44-1.67-1.28.65.11,1.36-1.2,2.14-.35.33.36.21,1.32-.47,1.63ZM127.26,46.88c.36-.18.79.01.84.63-.07.59-.5,1.06-1.08,1.22-.53.15-1.27-.49-1.15-.72.25-.49.85-.87,1.38-1.14ZM124.97,21.84c.01-.15.45-.43.63-.39.63.12.56.76.73,1.21-.05.21-.1.42-.15.64-.79-.16-1.27-.63-1.21-1.46ZM126.35,94.71c-.08-.46-.16-.96-.25-1.47-.03-1.28,1.51-1.85,1.61-3.25.35.87.69,1.73,1.04,2.6-.8.7-1.6,1.41-2.41,2.11ZM131.25,76.7c-.95.19-1.43-.2-1.21-1.16.32-1.38.83.05,1.24-.05-.01.4-.02.8-.04,1.21ZM128.57,71.23c-.82-2.28-.75-2.3,1.86-3.45.58,1.01-.55,2.51.86,3.27.01.41.03.82.04,1.22-1.46,1.09-2.31.22-2.76-1.04ZM131.42,62.1c-.09.18-.14.37-.14.57-.73-.03-.29,1.19-1.12,1.06.31-.97-1.13-1.7-.36-2.64.07-.08,1.86-.61,1.62,1.01ZM131.87,48.08c-.47.07-1.06-.11-1.23.59-1.27-.55-.38-1.63-.6-2.44.04-.04.07-.07.1-.11-.06-.08-.14-.15-.24-.22,0-.02,0-.04-.01-.06.13.05.26.1.39.15.73-.63.93.25,1.28.69.08-.01.16-.04.22-.02,0,.06,0,.13-.01.2.04.02.09.04.14.04.4.41.38.81-.05,1.18ZM134.69,70.5c-.07.21-.54.5-.73.44-1.41-.41-.59-1.48-.73-2.9.49,1.28,1.85,1.27,1.46,2.46Z"/>
        <path class="cls-1" d="M136.3,311.98c.06,2.36,1.9-.84,2.32.61-.6,1.58-2.36.39-3.28,1.45-1.54,1.81-2.19.21-2.87-.92-.52-.88-.45-2.64-1.99-2-.55.23.37,1.84.56,2.79.23,1.17.68,2.21,1.59,2.5,1.56.48.85,1.68,1.18,2.51,4.77-2.05,6.31-6.2,7.84-10.59-1.28.3-1.83,1.52-3.2,1.42-1.19-.09-2.19.93-2.16,2.21Z"/>
        <path class="cls-1" d="M121.63,341.86c1.1-.05,1.25,1.23,2.1,1.5.74.26,1.64,1,2.19-.06.31-.63.55-1.48-.69-2.02-.58-.25-.76-1.46-1.11-2.29-2.07-.15-1.9,1.7-2.49,2.87Z"/>
        <path class="cls-1" d="M124.13,338.99h.04v-.09h-.08s.02.05.03.09Z"/>
        <path class="cls-1" d="M143.93,302.67c-.04.15.31.6.47.6,1.21-.02.52-1.21,1.49-1.61-1.43-.32-1.76.32-1.97,1.01Z"/>
        <path class="cls-1" d="M62.71,77.6c.53.03.3-.59.3-.97,0-1.52-1.03-.75-1.69-.78-.28,1.14.37,1.7,1.39,1.75Z"/>
        <path class="cls-1" d="M61.32,75.73s-.04.08-.06.11c.02.01.04.01.06.01,0-.02.01-.05.02-.09-.01-.01-.01-.02-.02-.03Z"/>
        <path class="cls-1" d="M133.37,306.98c.74-.47.51-1.57.11-2.28-.66-1.16-1.49-2.22-2.67-3.91-.38,2.26-.45,3.73.35,5.17.52.93,1.28,1.59,2.2,1.02Z"/>
        <path class="cls-1" d="M123.59,260.93c.04.87.96,1.54,1.46.87.62-.81.61-2.08.87-3.16-1.26-.21.09-2.71-1.92-2.27-.76,1.46-.47,3.02-.41,4.56Z"/>
        <path class="cls-1" d="M136.69,296.66c-.38.6-.32,1.24-.53,1.77-.23.59-.58,1.07.53,1.55v-3.32Z"/>
        <path class="cls-1" d="M119.49,338.48c-.88,2.17-1.04,2.53-2.13,2.04-1.97-.89-1.42.42-1.45,1.31-.08,2.04,2.55-.39,2.55,1.53.64-.11,1.47.42,1.89-.54.16-.37.59-.95.51-1.03-.95-.93.03-2.63-1.36-3.31Z"/>
        <path class="cls-1" d="M146.94,340.89c-.22.04-.37.35-.51.49.06.66.45.73.86.67.28-.05.91.25.76-.4-.1-.46-.52-.9-1.12-.76Z"/>
        <path class="cls-1" d="M112.24,298.37s-.06-.05-.11-.08h-.04s-.02.05-.03.09c.06-.01.13-.01.18-.01Z"/>
        <path class="cls-1" d="M115.91,251.27c-.82.33-2.42-.37-2.33.98.06.87,1.39,1.46,2.35.28.39-.19,1.11.98,1.25-.28.11-.98-.39-1.24-1.27-.98Z"/>
        <path class="cls-1" d="M110.28,325.96c-.21,1.75-.32,3.5,1.42,4.67.24.16.98.2.87-.38-.28-1.6.75-3.87-2.29-4.3Z"/>
        <path class="cls-1" d="M113.17,300.82c-.17-.88,1.34-2.5-.92-2.45.73.63-.97,2.33.92,2.45Z"/>
        <path class="cls-1" d="M113.26,300.84c1.03.54,2.07,1.05,3.46,1.76-.51-2.91-1.83-2.73-3.46-1.76Z"/>
        <path class="cls-1" d="M113.19,300.89s.05-.02.08-.04h-.01s-.01-.01-.01-.01c-.02,0-.05,0-.08-.01,0,.02,0,.05.01.08h.01Z"/>
        <path class="cls-1" d="M114.11,310.04c.43.41.6-.26,1.05-.74-1.58-.3-1.61-1.7-2.25-2.71-.23-.37-.87.19-.82.84.11,1.29,1.21,1.86,2.01,2.61Z"/>
        <path class="cls-1" d="M109.97,337.77c-1.05.88.69,1.55,0,2.42,1.27-.68.91-1.57.58-2.44-.02-.06-.46-.08-.58.02Z"/>
        <path class="cls-1" d="M112.84,332.74c-.76.31-1.33,1.23-1.83,1.99-.09.14.39,1.31,1.16.59.55-.51,2.16.64,1.82-.99.04-1.02-.54-1.84-1.15-1.59Z"/>
        <path class="cls-1" d="M109.56,303.65c0,.34.18.7.28,1.05.39-1.07,1.78-.32,2.21-1.13.08-.64-.21-.91-.69-.87-.72.06-1.82-.48-1.81.95Z"/>
        <path class="cls-1" d="M115.8,303.62c-.89-.54-1.76-.26-2.64-.01.82-.04,1.68,1.59,2.64.01Z"/>
        <path class="cls-1" d="M117.58,333.03c-.15-.27-.24-.6-.45-.8-.51-.44-.76.16-.94.4-1.57,2.18-1.67,4.3.55,6.47.87-2.06-2.1-4.55.84-6.07Z"/>
        <path class="cls-1" d="M115.34,330.78c-.32-1.1-.64-2.19-1.03-3.54-2.05,1.97-.08,2.76,1.03,3.54Z"/>
        <path class="cls-1" d="M112.31,294.95c.54,1.15-.96,1.09-1.27,1.92-.54,1.49.23,1.34,1.05,1.42.37-.88.2-2.12,1.75-2.19.41-.02,1.16-.74.61-1.45-.37-.48-.98-1.04-1.49-1.06-.56-.01-1.04.54-.66,1.36Z"/>
        <path class="cls-1" d="M130.42,182.42s.02,0,.02,0c.02-.03.04-.05.06-.08l-.09.07Z"/>
        <path class="cls-1" d="M134.54,202.63s0,.01,0,.02c0,0,0,0,.01,0,0,0,0-.02,0-.03Z"/>
        <path class="cls-1" d="M153.89,253.64s0,0,0,0c-.02.01-.03.02-.05.03h0s.07-.04.05-.03Z"/>
        <path class="cls-1" d="M154.71,289.97c-.09-.68-1.68-1.63.23-1.96,1.2-.19.99-1.35,1.67-1.85,1.32-.67,1.88-1.96,2.55-3.15,1.05-.52,1.18-1.58,1.52-2.54.83-1.15-.58-2.03-.45-3.09.01-.04.02-.1.03-.14.27-.6-1.36-1.3.1-1.84.61.53,1.46,1.62,1.77,1.49,2.13-.93.81-3.63,2.4-5.06.77-.69-.85-.88-.92-1.57,2.9-.67,3.69-2.99,4.36-5.42-1.12-.65-1.33-1.51-.43-2.63.9.33.39,1.1.48,1.69.01.01.02.02.04.04,2.45-1.45,2.61-4.26,3.8-6.45.54-.98.92-2.08,1.64-2.9,1.17-1.35.99-2.39-.31-3.42,1.5-.84,3.87-1.38,1.3-3.65,2.27.02,2.3-1.7,2.58-3.25h0c1.18-.81.8-2.17,1.17-3.26.69-.15,1.2-.49,1.26-1.28,1.1-1.81,2.58-3.57.64-5.72.32-1.36,2.17-1.14,2.44-1.82.64-1.61,1.27-3.48-.04-5.2,3.16,1.07,2.5-.77,1.95-2.55.78-1.29,2-2.49.77-4.15.75-.55-.76-2.36,1.24-2.2.38.85,1.11.88,1.2.09.06-.55,1.44-1.88-.52-2.03,1.03-1.3,2.35-2.45,2.24-4.33.25-1.3.49-2.6.75-3.89-.16-1.76,2.15-1.86,2.29-3.42.42-4.95,5.26-8.54,4.35-13.94-.03-.14.69-.33.9-.61.16-.2.62-.44.1-.93-1.97-1.83-1.62-4.05-.89-6.31.97.52-.31,1.98,1.03,2.3.18.63-.45,1.58.78,2.12-.02-1.13.01-2-.68-2.67-.02-.02-.05-.05-.09-.09.91-.63,1.12-1.96.39-2.2-1.46-.48-1.95-2.74-3.9-2.07-.14.04-.31.38-.27.53.35,1.45-1.18,1.76-1.63,2.75-3.93,8.66-9.5,16.47-13.06,25.35-.54,1.35-.42,1.99.51,2.49,1.63.89,1.34,2.17,1.24,3.88-.28-.52-.35-.71-.47-.87-.81-1-1.29-2.93-2.61-2.6-1.14.28-1.83,1.92-1.23,3.5.17.43-.35.78-.59,1.16-3.09,5.09-5.77,10.4-8.3,15.8-1.06.66-1.55,1.77-1.81,2.86-.69,2.93-2.24,4.04-5.36,3.63-3.36-.43-6.44.86-9.17,2.87-.38-2.71-6.14-3.94-8.82-1.92-1.46-2.47-1.12-5.57-.56-7.74,1.25-4.83.26-8.81-2.08-12.88,1.13-.39,1.85,1.05,2.97.51-.12-3.4.11-6.85-.47-10.25-.09-1.69-.17-3.37-.27-5.06.77-2.54-.15-5.03-.15-7.55-.01-.85-1.32-.69-1.29-.46.29,1.93-.82.85-1.46.75.34-1.38-1.47-1.93-1.25-3.28,2.9.58,1.4-2.8,3.04-3.36.42.81,1.11,1.6.26,2.51-.38.4-.02.59.19.67.21.06.72-.13.71-.16-.23-1.92,1.15-4.17-1.11-5.68,1.58-1.93,1.21-3.21-1.28-3.76.73-1.9-.47-3.45-1.12-5.01-.28-.7,1.2-.89.15-1.27-.56-.2-.87.12-1.05.77-.11.4-.42,1.27-1.26.67-.84-.58-.74-1.42,0-1.76,2.16-1.01-.72-2.77.48-3.45,1.6-.89,1.06,2.8,3.08,1.81.09-.04.2-.01.31,0,1.57,1.02,1.14-.49,1.16-1.03.09-1.76.97-2.36,2.62-2.1.44,2.94,1.33.39,2.04.17,3.17.8,6.35,1.98,9.41-.34,2.7.83,5.43,2.79,7.95-.31-1.09-.16-2.03-.6-1.55-2.1.81-1.02,1.59.34,2.4.03.24.7.84,1.54.63,2.08-1.03,2.78,1.41,2.04,1.96,1.58,1.21-1.04,2.62-.57,3.84-1.09,1.85,1.75,2.33,0,3.43-1.72.09.01.17.03.25.04-.66,2.63.8,2.83,2,2.31,1.92-.83,3.52-.44,5.26.25.43.16,1.15.25,1.44.01,1.75-1.4,3.66-.29,5.47-.48,1.22,1.06,2.45.91,3.55-.14.48-.46.05-.69-.4-1.07-1.3-1.13-1.81-.13-2.45.69,0-.85-.95-1.61-.2-2.53.2-.75.19-1.67,1.33-1.67-.38,2.56,4.85.18,3.43,3.85-.09.24,1.3.83,1.83-.26.03-.08.06-.15.09-.23-.16-2.36.29-4.69.5-7.03-1.24.03-2.49-.07-1.57-1.78.38-.71.28-1.37.42-2.05.07,0,.12,0,.19.01-.03-.1-.06-.19-.11-.29.48.14.86.2,1.16.18.58-.24.77-.84.52-1.84.32-1,.65-2,.96-2.98,1.57,1.08.85,3.15,1.89,4.41.08.01.16.03.26.05,1.47-1.24,3.69-2.89,1.47-4.46-1.35-.96-4.29-3.16-6.29.14-.37.59-.77.59-.9-.27-.23-1.45-1.42-.99-2.27-1-2.43-.06-4.86,0-7.29-.04-2.6-.04-3.57,1.52-3.81,3.8-.21.01-.41.05-.6.14-.78-.06-1.43-.33-1.88-1.36,2.98,1.16,1.68-1.67,3.06-2.51-4.37,0-8.27.01-12.18-.01-1.57-.01-3.06-.16-4.22,1.4-.47.63-1.64,1.62-2.35-.3-.25-.67-1.53-.48-2.36-.46-5.89.19-11.78.32-17.67.61-1.52.08-2.16-.57-2.34-1.83-.16-1.07-.06-2.19-.09-3.29-.08-.24-.13-.45-.15-.63.15.12.23.27.18.51.32-1.33,1.63-1.65,2.54-2.41.71-1.35,1.09-1.4,1.16-.74.24,2.03,1.29,1.09,2.2.78,3.83-1.28,7.8-2.02,11.66-3.39,3.93-1.4,8.01-2.51,11.54-4.72,2.73-1.7,5.1-1.82,7.95-.61,1.31.55,2.96,2.47,4.44.01.15-.26.64-.38.7.37.13,1.85,1.68,2.07,3.05,2.5,7.95,2.47,14.74,6.89,20.93,12.23-.4,1.15-1.98-.04-1.92,1.27.03.77.64.45,1.17.3,1.43-.39.68,2.36,2.01,1.63,1.44-.77-1.1-2.49.44-3.55.16-.11.32-.2.68-.43-.3,2.74,3.47,1.88,3.62,4.36.03.39,4.49-.49,4.35-.87-.9-2.44.17-4.93-.29-7.36,1.95-2.15,2.05.87,3.2,1.33-.02-2.97.05-5.73-3.19-6.93-3.83-5.8-10.21-8.24-15.67-11.87-.67-.44-1.34-.32-1.62.73-.13.51-.73,1.3-1.39.75-.81-.67.13-.78.53-1.2.96-1.02-.16-1.25-.82-1.75-1.2-.91-2.79-.6-3.94-1.42-2.11-1.49-4.43-2.18-7.08-2.31,1-3.08,3.69-5.02,5.32-7.64.8-1.28.69-2.99,1.98-3.94,2.31-1.71,3.49-4.03,3.65-6.89,2.11-.83.95-1.67.02-2.5,1.47.09,2.19-.97,2.35-2.08.31-2.3,2.27-4.06,1.32-6.95-.48-1.49,1.18-3.93,1.57-6-1.03-.43-1.35,1.45-2.17.49-1.03-1.2.94-1.33.88-1.48-.58-1.95.11-3.29,1.76-4.28-1.09-.78-1.16-1.56-.13-2.5.25-.23-.03-.85-.6-.76-.35.04-.84-.33-.89.66-.13,2.25-2.19,2.85-3.87,3.04-1.4.16-2.2.61-2.6,1.88-1.14-.84-.83-1.82-.85-2.7-.58.01-1.17.02-1.75.04-.55.17-.95.42-.62,1.09.82,1.02,0,3.98-1.43,5.17,2.56,2.13,2.48,2.64-.58,3.85-1.54.61-1.38,1.85-.28,3.39.55.76,2.04,1.41,1.38,2.8-.16.33-.56,1.05-1.16.34-.63-.75-2.95,1.82-2.55-1.31-.6,1.2-1.21,2.4-1.81,3.6-.49.4-1.06.32-1.62.28.36.52.03,1.21.24,1.77-.39,1.21-1.08,1.82-2.37,1.23-.43,1.56-.18,3.42-1.93,4.4-.92-.4-1.21-1.04-.7-1.95.89-.81.51-2.96,2.56-2.55-.17-1.4-1.42-3.47,1.1-3.22.03-.01.05-.03.07-.05-2.28-.86-3.03,1.33-3.77,2.42-2.64,3.94-6.06,7.27-8.52,11.29-.92,1.5-2.36,1.04-3.46,1.68-1.84,2.29-4.3,2.08-6.82,1.71-2.2-.33-4.41-.62-6.62-.89-.65-.08-1.55-.57-1.77.58-.16.81-.26,1.65-1.33,1.42-1.13-.25-2.71-.15-1.93-2.2-1.85.28-1.3,2.31-2.71,2.59-.52-1.6-.28-4.67-3.08-1.58-.61.68-1.05-.11-1.58-.28-1.77-.54-3.12-.62-2.18,2,.74,2.07.71,4.15-1.21,6.33.65-2.15-.6-3.29-1.35-4.64.05-.06.11-.12.16-.18-.06-.02-.13-.03-.19-.06-1.93.47-1.07,2.65-2.36,3.65-1-1.76-2.56-1.75-4.28-1.11-1.17.43-.67,1.16-.4,1.86-.02-.02-.03-.04-.04-.06l.05.11c-1.93.76-3.11,5.55-1.61,6.78.11.09.64-.35.97-.55.09-.9,1.79-.94,1.41-2.08,0,0,0,0,0,0-.04-.1-.07-.2-.13-.32v-.05c.16.01.32.02.47.04,1.6-1.6,1.94-1.45,1.63-.27-.46,1.72,1.78.93,1.64,2.37-.15,1.53-.31,2.71-1.39,3.61,0,.02.02.04.02.06l-.05-.03s.05.03.06.04c0,0-.01.02-.02.02.01.03.03.05.04.07.02-.05.04-.09.07-.14-.02.09-.02.17-.01.25.41.68,1.15.8,2.05.65-.91,1.97-2.34,1-4.06,1.49.92-1.1,1.42-1.71,1.91-2.32-.01-.02-.02-.04-.04-.07,0,0,.02-.02.02-.02-.21-.53-.43-1.06-.64-1.59-.22-.54-.42-1.09-.64-1.65q-.54,1.23-2.28.42c-.06-.15-.07-.27-.07-.38-.01,2.08-1.49,1.11-2.49,1.16-.41,1.61-2.78-.09-3.05,1.86,1.53.6,3.07.05,4.62-.1.31.95,1.15,2.31.8,2.74-1.98,2.49-.61,4.74.12,7.07-.14.25-.24.48-.29.73,0,.01-.01.02-.01.03-.61,1.55-1.01,3.07.87,4.34.04.17.05.35.03.54-.96.01-1.65.35-1.87,1.36-1.48-1.34-.8-3.72-2.32-5.03-2.1-.29-.9,1.42-1.2,2.14-.31.76,1.01,2.12-.18,2.53-3.08,1.04-1.34,1.81-.12,2.93.55.51.86,1.58.32,2.32-.67.91-.84.88-.45,1.63.41.8-.41,1.09-.54,1.64-2.86-.99-3.41-5.05-6.75-5.25-1.4,2.16,1.53,3.07,1.21,4.92-.11.64-.62,1.63.61,1.62.64-.01,1.58.66,2.1-.67.35-.9.67-.77,1.5.7-.1.03-.2.05-.28.12-.05.05-.06.16-.1.25,1.23.01.33,3.26,2.63,1.73.06-.04.71.49.73.77.02.28-.37.7-.68.87-.87.47-1.53-.42-2.3-.47-1.26-.09-2.94-.54-2.37,1.83-1.14,2.07-.46,2.88,1.81,2.57,2.68-.1,3.06,1.79,3.31,3.8-.04,1.47-.68,3.33,0,4.31.91,1.35-1.78,4.95,2.44,4.18.09-.12.17-.23.24-.35.17-2.12-1.07-4.25.22-6.46.85-1.45,1.05.02,1.54-.04.23.58-1.01,1.09.06,1.83.81.57,1.72,1.47.98,2.76,0,0,.09-.07.09-.08.03.03.05.06.08.09.46-.11.86-1.28,1.32-.12.13.33,1.01.83.24,1.13-.73.29-1.12-.49-1.56-1-.05.01-.1,0-.15,0-1.35,1.56-1.22,3.53-1.45,5.4.39-.24,1.06.34,1.49.5.14-.07.27-.15.41-.28,0-.1,0-.22-.01-.37-.18-1.5.36-1.61,1.12-1.32.77.3,2.2.77,1.17,2.24-.45.76-1.34.18-1.89.62l.03.04c-1.28-.53-2.57,1.33-3.84-.02.19-.38.38-.76.58-1.14-.55-.37-.97-.78-.54-1.54v-.02c-.05-.1-.09-.21-.14-.31-.9,1.3-1.64-.3-2.4-.26-.49,1.82-.23,3.04,1.91,2.92-.27.92-1.35.37-1.78.99,2.76,1.34-.32,2.43-.31,3.7.01,1.59,1.19,1.1,1.64,1.7.3.41,1.03.93,1.2.34.19-.66.69-1.57-.32-2.34-1.98-1.52.53-2.41.97-2.92.85-.97,1,.69,1.44,1.19.31.35.14,1.05.77,1.24.59,2.03.92,4.08.71,6.2.13.07.25.12.38.17.81-.53,1.84-.29,2.76-.5.07-.03.14-.06.2-.09-.02.02-.05.04-.07.05.33-.1.64-.26.92-.56-.1,1.12-.77,1.6-1.56,1.98-.83.75-.06,2.64-1.9,2.65-.25-.25-.5-.49-.75-.74-.23-.23-.63-.22-.9-.39-.6,1.57.38,3.34-.58,4.88-.11.16-.23.29-.36.42.22,1.08-.11,2.16-.12,3.29-1.82-.49-1.25-1.75-1.16-2.84-.23-.07-.42-.21-.52-.46.21-2.48.42-4.97.63-7.45,0,0,.02,0,.02.01-.05-.11-.09-.23-.15-.34-.61-.76-1.27.4-1.89-.04-.16-.26-.31-.52-.46-.76-.35-.62,1.85-.37.45-1.32-.24-.16-.58-.37-.78-.3-.82.26-.49.99-.52,1.55-.02.72.04,1.43.06,2.15-.03,7.84-.06,15.7-.1,23.55-1.2,2.6-.38,5.33-.56,8.01-.15,2.27-.75,4.69,2.45,5.43,0-.03.02-.06.03-.08-.24-.87-.66-1.66-1.15-2.42-.41-.64-.81-1.73-.25-2,.02-.01.04-.02.06-.04.04-.15.11-.27.21-.31.38-.16.68-.34.93-.54,1.41-1.63.16-4.03.89-5.82.02-.19.06-.38.11-.57.19-.17.35-.26.5-.32,0-.02,0-.03,0-.05.02,0,.04.02.06.02.57-.16.9.42,1.26.92,1.06,3.84-.77,7.52-.62,11.31.06.04.11.09.18.13,3.28.18,4.65,1.72,4.28,4.84-.08.67-.4,1.3-1.01,1.24-.59-.07-.98-.58-.39-1.32.42-.54-.11-1.07-.54-1.25-.96-.38-.36.59-.62.82-.63.56-1.4.71-1.87-.11-.3-.52-.45-1.13-.61-1.74-.14-.21-.24-.49-.29-.88-.89-.1-1.74,1.59-2.74.08-.04-.08-.3.53-.01.86v.02c-.8.73-1.59,1.48-2.37,2.22,1.21-2.51.34-3.27-2.1-3.11-7,.47-14,.9-20.98,1.34.18,1.07.81,1.9,1.55,2.76-.37.09-.67.1-.91.23-1.07.58-2.32.37-3.08-.17-1.11-.78.31-1.61.59-2.36.55-1.44.02-2.03-1.43-2.78.27,1.19.98,2.42.21,2.8-1.79.91-2.44-1.58-3.98-1.78-1.21,3.46,2.53,2.03,3.46,3.42-2.22.87-4.11,1.06-4.06.64.31-3.01-1.17-.82-1.49-.44-.99,1.18-1.49-1.42-2.35-.2-.08-.38-.28-.78-.18-1.12.24-.89,1.07-.68,1.53-.43,1.06.58,1.14-.25.88-.7-.63-1.07-.12-2.46-1.79-3.36-2.12-1.14-1.71-2.92.53-4.35.08-.08.14-.16.2-.24-.13-.62-.81-1.13-.64-1.81-1.05.95-1.97,3.16-3.43.12-.24-.5-1.28.09-1.93.41-.55.27.87,1.7-.7,1.16-.79-.27-.43-1.02-.55-1.62-.49-2.37,1.22-3.63,2.22-5.26.02-.02.04-.05.06-.07,0-.09-.02-.19-.05-.27.08,0,.17,0,.26,0,.1-.12.19-.23.28-.35-.37.09-.84.12-1.24.18-.35-.15-.69-.3-1.04-.45,1.03-.11.88-2.02,2.31-1.52.27.34.44.61.53.84.16-.48.09-1-.48-1.62l-.06-1.83c.08-.15.16-.29.25-.42,0,0,0-.02-.01-.03.01,0,.03,0,.04-.01.38-.52.85-.72,1.57-.11.39.77.79,1.54,1.18,2.31.02,0,.03,0,.04,0,2.35-3.06.34-5.76-1.28-7.92-3.78-5.06-8.16-9.64-10.57-15.69-.91-2.28-3.08-4.06-4.66-6.08-.57-.74-1.18-.69-1.88-.24-.01.02-.02.03-.03.05.07.08.12.17.17.27.38,2.24,2.89,3.31,3.13,5.63.02-.01.03-.03.05-.05,0,0-.05.07-.05.07h0s0,0,0,0c3.19,3.14,5.59,6.73,6.32,11.24.1.04.22.06.31.11,2.68-.71,2.17,1.89,2.94,3.16,1.22,1.5,3.88,1.8,3.7,4.46-.48,1.02-1.14,1.71-2.39,1.28-.04-.2-.1-.4-.19-.58-.4-1.41-.81-2.82-1.21-4.23-.98-.43-1.42.64-2.31.84-.46-1.35.36-2.97-.87-4.1h0s0,0,0,0c-2.18-1.45-2.76-3.87-3.81-6.05-.71-1.49-1.08-3.41-3.33-3.81-.72-.13.56-.56.38-1.05-.05-.21-.04-.4,0-.57l-.02-.02s.03-.07.04-.11c.01-.04.03-.08.05-.12.04-.11.08-.23.13-.34-.03.02-.07.03-.1.05-.57.04-1.1-.1-1.63-.28-.26-.1-.5-.24-.72-.41-.54-.59-.82-1.34-1.26-2-.12.06-.26.08-.46.05-.22,0-.43,0-.65,0-.58-.96-1.63-1.21-2.49-1.77-1.33-.88.07-.82.57-1.01,1.41-.2,1.63,1.38,2.51,1.97-.38-1.04-1.79-1.73-1.08-3.14,0-.02.02-.04.02-.06-.05-.09-.1-.18-.15-.27-.67-.13-.58-1.24-1.44-1.12-.84-.88-1.69-1.77-2.53-2.65-.13-.18-.29-.2-.48-.08,1.82-1.79-1.32-2.96-.6-4.65.2-.48-.02-1.12-.71-1.12-3.4-.03-3.45-2.67-3.93-4.99.82-1.12,1.47-2.07-.66-2.6-.59-.15-2.55-.9-1.68-1.45,2.35-1.48-.35-2-.23-2.94.86-1.04,1.17-2.15.02-3.16-1.75-1.54-3.15-2.78.44-3.87,1.73-.53,1.95.31,1.67,1.31-.27.97.01,2.01-.73,2.97-.54.68-.02,1.6,1.15,1.56,1.38.72-.37,1.48.04,2.42.54,1.24.82,1.64,1.86.59.54-.6,1.63,1.4,1.97-.43.09-.48-1.46-1.26.22-1.43.73-.08,1.65-.41,1.31,1.07-.05.23,1.25.45,1.71-.38.05-.07.09-.13.12-.2,0-.24-.01-.48-.02-.71.02,0,.03,0,.05-.01,0-.02,0-.03-.02-.05.15-.08.27-.19.35-.32-.01-.03-.01-.05-.03-.09-.03.01-.06.02-.08.04h0s.03-.07.04-.1c-.49-.62-.69-1.43-.11-1.92.23-.2.4-.38.53-.56.08-.17.17-.33.26-.5.14-.52-.12-1.03-.71-1.71-.58-.67.53-.36.84-.55.46-.7-.54-2.31.62-2.17,1.35.16-.35,1.43.12,2.18.69.64.91,2,2.7,1.01-1.18,2.21-3.74,2.17-4.25,4.22.01.01.02.03.03.04,0,.01,0,.01,0,.03.03-.01.06-.02.08-.04.04-.11.08-.23.07-.38-.01-.01-.01-.03-.02-.04.09.11.18.21.28.31.44-.13.85-.07,1.16.52.37.49-.04.9-.15,1.34,0,.86-.74.55-1.18.72-.04-.05-.08-.1-.12-.15.16,2.99,1.59.58,2.49.41.81.99,1.9.82,2.19-.13.34-1.05-.61-1.95-1.55-2.56.06-.4-.15-.56-.51-.6,2.1-2.67,2.1,1.63,3.56,1.07.09,0,.17,0,.25.02.6-1.31,1.59.75,2.26.04.75.77-.08,1.12-.39,1.61,1.35.75,2.83.99,4.35,1.05,1.81.13,3.66-.25,5.58.96-.61-1.78-.76-3.54-3.04-2.64-.54-.23-.95-.61-1.64-.69-1.36-.16-1.48-.95-1.2-2.37.41-2.16,1.65.15,2.19-.68-.43-1.15-.88-2.32-1.32-3.48-1.4,1.61-2.79,3.21-4.26,4.9-.11-.95.13-1.68.32-2.47.34-1.42,1.5-3.44-1.1-4.16.12.81.25,1.63.47,3.13-1.28-1.75-4.13-.32-3.66-3.44.23-1.53-3.15-3.89-4.75-3.57-.25.05-.78-.12-.66.34.63,2.08-2.57,3.43-1.03,5.77.46.69-.86,1.63-1.05,1.42-.57-.67-2.29.75-1.98-1.13.69-.06,1.2-.24,1.23-1.11.01-1.03-.73-.92-1.29-.83-1.55.27-.87-.99-.98-1.5-.13-.62.47-.38.82-.27.77.21,1.45-.14,1.44-.77-.05-2.75,1.06-4.13,3.57-5.28,1.18-.55.77.42,1.12.68.64.46-.72,1.7.78,1.78.67-1.43.99-2.8-.08-4.31-.77-1.09.11-1.19.95-1.14.34.76.68,1.53,1.03,2.31.89-.86.85-2.1.81-2.92-.08-1.38-.72.3-1.17.06-.58-.12-.99-.15-1.31-.97-.9-2.27,1.76-3.84.97-6.05-.12-.33,1.36-.87.37-1.63-.72-.54-1.96.24-2.53-.87-.63,1.16-.42,2.92-2.5,3.11-.34.03,1.83.34.91,1.85-.96-.28-2.25-.03-3.13-.24-2.88-.66-2.99-.76-3.58,1.92-.32,1.46-.85,2.64-2.43,3.54-1.13.62-3.95.68-2.8,3.45.02.03-.46,1.06-1.04.41-1.68-1.89-1.81.43-2.5.97-.28.2.01,1.41-.15,1.46-2.27.63-1.53,4.57-3.56,4.17-1.83-.37-.78-3.25-1.12-4.96-.2-1.09-.68-1.21-1.33-1.54-.12,1.45-2.78-.2-2.39,1.97.06.38-.54.67.34.99,2.6.98,2.91,3.92.73,5.73-.55.45-1.05,1.11-1.48,0l-.03-.1c1.6-2.33,1.68-3.13,1.09-3.04-3.74.56-1.72-2.92-2.94-4.09-.2-.19.87-.91-.18-1.03-.56-.06-1.68-.26-1.63.32.14,1.84-1.97,2.8-1.59,4.64-.05,1.48-.64,1.61-1.68.68,1.23-3.81-.1-5.97-3.56-5.65-1.69.15-3.32,1.84-5.03.09-.35.35-.7.72-1.05,1.07-1.86.72-4.42-1.26-5.77,1.49-.25.49-.38-.06-.57-.14-2.98-1.14-5.65-.13-8.26,1.21-.62.2-1.25.41-1.87.61-3.03-.75-3.61,1.93-5.07,3.49-1.16,1.24-2.67,2.29-1.99,4.15.71,1.96,2.64,1.16,4.11,1.33.31.03.62.04.93.05.72.66,1.38,1.23,2.36,1.69,3.21,1.48,6.67.03,9.82,1.29,1.92.47,3.86.25,5.81.27,1.82.03,3.83-1.2,5.52.47.04-.11.09-.21.12-.32-.01.11-.04.21-.12.32-1.46.92.74,1.7.11,2.58-1.1-.15-1.7-.08-2.15,1.34-.8,2.5-.15,4.02,2.08,5.09,1.76.32,2.83.99,1.29,2.79-.56.66-1.04,1.29-1.2,2.17-1.61,8.68-4,17.16-6.6,25.59-.3.97-.7,2.12-.14,2.72,1.79,1.91.31,3.97-.17,5.36-1.81,5.17-.54,10.47-1.3,15.63-.18,1.23,1.34,1.07,1.39.85.37-2.34,1.21-.74,1.57-.15.35.6.54,1.29,1.24.62.43-.4.57-1.42.76.02.05.37.51,1.45-.57,1.16-1.04-.27-1.81-.13-2.56.55-.03.02-.08.04-.12.05h-.01c-.56.17-1.29-1.14-1.7.11-.13.41-.02,1.19.26,1.38,1.2.78.62-1.27,1.55-1.07-.11,1.59,3.23,4.63-1.74,4.18-.04.92-.1,1.84-.13,2.76-.01.47.28.95.71.69,2.2-1.33,1.64,1.54,2.84,1.78,0-1.03.92-1.88.29-3.07-.39-.73.19-1.57.89-1.77,1.34-.41,1.13,2.33,2.82,1.56-.04.67.48,1.77-.32,1.9-1.45.23-1.3.17-.33,1.17,1.93,1.98,3.58,4.23,5.34,6.37-.08,0-.15.01-.22.02.09.02.16.02.25.02h.01s-.01-.01-.01-.02c.89.39.81,2.19,2.36,1.63,2.19-.46,1.2-1.96.87-3.06-.56-1.88-1.32.78-2,.24-.08-.09-.14-.17-.19-.27-.63-1.52-1.38-3.01-.66-4.72.23,0,.44-.01.67-.02,1.01.23.17,2.6,1.64,1.78,1.04-.58-.42-1.71-.58-2.63-.01-.06-.52-.05-.8-.08.34-.61-.08-1.12-.23-1.66-.49.48-.17,1.23-.54,1.75-4.37,2.63-2.47-2.1-3.71-3.16-.4-.44-3.12.49-.9-1.51-1.08-.47-.62-1.67-1.13-2.4-.48-.69-.55-1.28.3-1.67.92-.41,2.21.23,2.05.69-.52,1.46,1.24,2.17.9,3.43.13-.01.24-.04.36-.07.54-.46.48-1.53,1.42-1.58.08.21.19.34.34.43,0,0,.02.01.03.02.16.09.35.13.57.13.34,0,.91-.16.79.46-.03.15-.68.19-1.04.28-.72-.12-.56.63-.8,1,.43.21.8.49,1.1.86.07.04.13.08.18.13-.05-.17-.03-.33.06-.48,2.54-1.27,1.04-3.51,1.13-5.29.02-.62-1.1.71-1.76.14-.08-.55-.06-1.07.52-1.38,2.47-.1,2.54-1.29,1.35-3.02-.01-.64-.02-1.3-.03-1.95,1.01-1.02-.43-2.12.58-3.28-1.58.31-1.09,1.21-1.26,1.82-.19.1-.39.19-.59.3-1.96-.91-2.88-2.1-.9-3.89.63-.58.75-1.14.35-1.86.25-.18.47-.52.73-.54,1.82-.11,1.9-.11,1.47-2.01-.15-.63.62-1.34-.16-1.86.8-.01.92-.53.95-1.23.17-6.72,3.07-12.79,4.48-19.21.23-1.29.89-2.5.66-3.86,1.17-1.9.48-3.8-.01-5.7,2.42-1.76,2.35-4.43,2.54-7,.06-.42.12-.83.18-1.25,1.39-.34.33-1.28.46-1.93.16-.51-.02-1.19.73-1.38,2.74.66,2.82-.73,1.89-2.61-.6-1.25-.58-2.32.21-3.39.33-.45.74-.19,1.1.04,1.4.95.27,2.01.16,3.03,0,.08.14.16.19.23,1.61-.01.15-2.97,2.05-2.31,1.25.43,2.4,1.52,2.08,3.28-.09.51.08,1.06.76,1.16,1.39.18,1.06-1.29,1.74-1.79,1.14,1.17-.28,2.89-.39,2.9-3.04.35-.4,1.56-.58,2.27.76-1.6,1.96-1.67,3.4-1.26-2.07,5.52-2.07,5.7.06,10.47-.12-1.77.38-2.68,1.14-3.52.05,1.1,1.83,1.99.44,3.08-1.44,1.16-.64,2.19-.17,3.33.52,1.27,1.98,1.97,2.35,3.06,2.37,6.97,6,13.3,9.63,19.64.44-.02.75-.09.97-.19.39-.59-.4-1.32-.44-2.01-.03-.58-.95-1.69.47-1.93,1.12-.19.98.67,1.07,1.4.1.91.31,1.72.76,2.64.93,1.92-1.09.71-1.83,1.05.33.43.37.92.5,1.52.32,1.53-.26,4.57,3.06,3.56-.58-.5-1.15-.99-1.75-1.51.24-.58.62-1.06,1.3-1.03.66.03.16-1.42,1.02-.78.15.11.97.83.33,1.51-.51.55.06,1.5-.67,2,0,0,.08.08.08.08-.09-.08-.19-.17-.29-.25-.71,1.09-3.2,2.05-.17,3.39.14,0,.25-.04.37-.07.47-.67,1.21-1.17,1.15-2.24-.04-.72.86-1.55,1.61-1.47.44.04,1.02,1.04,1.12,1.67.39,2.46.7,4.98-2.21,6.31,0,0,.07.06.07.06-.1-.05-.17-.11-.24-.17-.5,2.06,1.07,3.35,1.93,4.91.32,1.02-.59,2.32.69,3.13l-.03.06.03-.03c.15,1.36-.06,2.92,1.84,3.33.41.26,1.2.61,1.16.76-.64,2.75,1.12,4.75,1.81,7.08,1.49,5.14,3.61,9.65,7.2,13.54-1.4,1.25.14,2.1.45,3.09.02.06.64.28.55-.3-.04-.29-.2-.56-.3-.85,2.92.18,1.14,2.72,1.94,4.02,1.64,2.64,2.33,5.78,4.12,8.22.57-.73,1.19-1.52,1.8-2.3-1.58-.03-1.69-.7-.66-1.87-.03-.05-.06-.11-.09-.16-.64.12-1.49.45-1.55-.25-.07-.91.5-2.02,1.49-2.51.83-.42,1.2.23,1.43.91.12.35.41.92.28,1.04-.45.44-.81-.21-1.08-.26-.99-.17-.35.62-.41,1.04.03,0,.06-.01.09-.01h-.01s-.04.06-.07.09c1.52.04,1.22.89.98,1.71.44-.12.99-.59.96.72-.03.96-.02,2.6,1.6,2.98.18-1.57,3.71-3.66-.85-4.59-1.05-.21-.33-2.05-.39-3.14-.02-.48.4-1.01.99-.89.69.15.92.84,1.01,1.43.32,2.19,2.03,3.68,2.48,6.28.67-2.86,1.27-5.04,1.29-7.32.81.06.28-.99,1.06-1.15,1.23-.26.52-1.33.12-1.47-.78-.3-1.17-1.64-2.33-1,1.21,1.35-1.24,1.84-.72,3.02-.24.51-.14,1.34-1.12,1.09,1.16-2.8-1.85-4.26-2.15-6.58l-1.74-1.46c-1.12-.16-.8.69-.85,1.24-.12,1.4-1.26,2.86-2.14,2.22-.93-.69-4.02-1.72-1.42-3.98.9.06.9.97,1.29,1.57.56-.85,1.11-1.69,2.02-3.07-1.07.33-1.9,1.16-2.26.25-.39-.98.73-.73,1.12-1.1.3-.28.52-.64.77-.98.99-.05,1.99-.12,3.03-.17-.51-1.53-1.74-.54-2.46-1.03-1.83,0-.61-1.03-.54-1.68,0,0,0,0,0,0-.37-.12-.88-.13-1.08-.38-.27-.33.03-.6.36-.94,1.34-1.39,1.27-1.54-.48-2.52-.82-.45-.45-1.48-.31-1.78.52-1.12,1.53-1.98,2.87-1.81.57.07,1.52.38,1.26,1.44-.2.84-.6,1.68-.2,2.51.03,0,.05.02.08.02,2.07-.61.35-2.22.86-3.25.02-.05.03-.07.05-.12-.14-.65-.34-1.3.05-2.02.78.68,2.17.88,1.72,2.44-.39,0-.78,0-1.17-.01.79.91,1.51,2.16,2.83.3-.11-.32-.03-.63.13-.95,1.39-.11,2.8-.98,4.16-.15.09-.01.19-.03.28-.04.82-.06,1.68.01,2.45-.21,1.36-.41,3.04-.2,3.93-1.72.86-.11.29,1.33,1.24,1.15l-.04.09s.05-.03.08-.05c.05.06.1.12.15.18.49-1.02.87-2.19,2.47-1.71-.43,1.09-.87,2.15-2.25,1.97.29.34.59.69.89,1.03.35.12.64.12.91.05.35-.39.47-1.05,1.01-1.21.15-.43-.11-1.06.57-1.22.62-.15,1.05.39,1.15.74.19.66-.47.95-.97,1.24,1.82,1.25,1.62,2.74.49,4.33-.13.23-.3.27-.5.08,0-.12,0-.24,0-.36-.04.01-.09,0-.13.03-.06.87.34,1.46,1.05,1.88.08-.19.15-.39.23-.57,1.96,1.5-.58-3.13,2.29-1.56,2.14,1.17.66,2.25,1,3.29-.06.61-1.17,1.28-.25,1.76.9.47.73-.48.75-1.02,1.59.41,1.55,2.01,2.25,3.06-3.56.95-1.16,4.12-2.26,5.99.53.32,1.12.1,1.67.15.1-.03.21-.06.3-.11,2.39-1.3,2.07.22,1.87,1.7-1.05.01-1.93-1.63-3.06-.51,2.17.92,4.04,1.88,1.18,4.54-1.1,1.02-1.3,2.61-1.12,4.15-.33.32-.87.75-.83.81,1.4,2.05,1,3.93.15,6.17-.34.91-2.1,2.88.23,4.03-1.97,2.24,1.78,1.58,1.58,3.17-.26,2.04.99,2.03,2.41,1.2.14.54.27,1.09.4,1.62-.05-.81,1.92-1.31.34-2.34.03-.39-.2-.87.31-1.1.47-.2.89-.02.91.47.25,5.1,1.39,2.91,2.68.35.26-.52,1.04-.49,1.41-.19.77.63.19.84-.41,1.24-.63.42-.99,1.24-1.01,2.07.93-.44,1.33.55,1.95.71.75.18,1.43-.7,1.57-1.44.14-.76.32-1.92.99-1.24.54.55,1.84.75,1.67,1.81-.11.66-.59,1.31-1.56,1.09-1.73-.41-.9.96-.63,1.21.83.81,1.36,1.68,1.15,2.82-.2,1.13.17.82,1.07.96,3.12.52,4.63-1.03,5.67-3.57.38,1.04-.56,2.37.75,3.2,0-.02,0-.04,0-.06-.32-1.24.32-2.36.61-3.52.2-.42-.14-1.17.72-1.21.58.46,1.48.71,1.44,1.55.78-.73.97-1.58.35-2.61,1.74-.15,1.28-1.46,1.31-2.5.57-.52,1.97-.74.66-1.9ZM195.07,188.95s.08.04.13.06h0s-.05.06-.07.09c.64,1.56.62,1.57-1.54,1.93.59-.74,1.07-1.33,1.54-1.93,0-.01,0-.02-.01-.03-.02-.04-.03-.08-.04-.13-1.83-.85-1.07-2.78-2.31-4.67,2.5,1.41,1.87,3.25,2.31,4.67ZM191.69,193.39c.5,1.19-.05,1.9-.32,2.9-.36-1.07-.56-1.87.32-2.9ZM190.07,196.06c.77,1.9-.05,2.63-1.51,3.17-.13-1.43,1.47-1.72,1.51-3.17ZM188.86,200.94c.45-.07.33.63.27.96-.23,1.2-1.06.58-1.72.52.29-.71.73-1.38,1.46-1.49ZM187.82,208.97c.03.87.06,1.73.09,2.6-2.18-.8-.4-1.72-.09-2.6ZM184.58,217.5c-.05.36-.65.83-1.07.91-.62.11-1.17-.41-1.13-1,.02-.35.64-.66,1.47-1.44.33.63.79,1.12.73,1.53ZM182.78,209.59c.77.02.62.64.66,1.12-.02.45-.16.86-.68.74-.62-.14-1.15-.56-1.14-1.23.01-.71.68-.64,1.16-.63ZM178.56,222.18c-.31-.72-.43-1.52-.03-2.12.26-.39.68.18.86.47.61.96-.24,1.24-.83,1.65ZM178.11,215.88c.64-.82,1.44-1.03,1.49.44.03.9-1.04,1.67-.54,2.8-.31-1.14-1.98-1.92-.95-3.24ZM172.63,227.53c.02-.39,0-.9.64-.8.5.08.63.45.62.91.02.43-.01.9-.53.95-.77.07-.76-.54-.73-1.06ZM169.66,257.3c.06-.05.12-.11.22-.15-.01.06,0,.11,0,.16.06,0,.12,0,.19.01.16.2.33.4.49.61-.16.6-.44,1.09-1.11,1.22,1.08-.27-1.8-1.89.21-1.85ZM162.64,247.96c.04-.13.61-.24.8-.13,1.1.63,1.04,1.66.59,2.86.12-1.22-1.85-1.35-1.39-2.73ZM192.88,156.54c.52-.35.65-.06.96.18.74.57,1.09,1.17.34,1.97-.38,0-.76,0-1.14,0,.06-.19.07-.44.2-.55.9-.76-1.76-.67-.36-1.6ZM191.81,163.46c2.03-.07-.6,2.48,1.54,2.87-1.27.49.06,1.82-1.13,1.84-.17,0-2.08-.03-1.29-1.46.59-1.06-1.76-3.16.87-3.25ZM186.67,156.69c.18-.44.58-.87.99-1.11.35-.2.82-.01.82.55,0,.75-.68.93-.96,1.29-.7.02-1.03-.31-.85-.73ZM185.39,167.37c.3-.45.6-1.06,1.36-.97.55.06.5.53.51.93.03.9-.55.97-1.22.91-.48-.04-.74-.29-.64-.87ZM186.64,170.16c-.84.46-.49,2.13-1.94,1.94-.9-.12-.68-.81-.64-1.4.91.06,1.3-2.38,2.58-.55ZM183.59,163.23c.42.06,1.26.44.8,1.18-.27.44-.07,1.43-.98,1.27-1.03-.18-.59-.8-.29-1.3.5-.31-.87-1.33.47-1.15ZM183.37,160.64c-.07.39-.14.77-.21,1.16-.37-.6-1.44-.25-1.58-1.17.6-.58,1.2-.6,1.79,0ZM181.01,167.86c.43-.18,1.81-.19.99.99-.31.45-.4.84-.54,1.29h-.26s-.26,0-.26,0c.32-.77-1.37-1.68.08-2.29ZM181.79,171.18c.16.16,0,.98-.23,1.13-1.35.84-1.06-1.68-2.38-1.14.99-.44,1.9-.69,2.6.02ZM178.69,163.44c.77.46-.15.94-.21,1.47.03,0,.05-.01.08-.02h0c.01.07,0,.11,0,.15.99.8.11,1.28-.43,1.78-.05.05-.53-.21-.64-.41-.58-1.09,1.04-.66,1.07-1.37-.03-.02-.05-.05-.08-.07,0-.02,0-.04.01-.06-.72.26-.99-.31-1.3-.79.52-.25,1.24-.84,1.51-.68ZM175.93,158.59c.6-.77,1.02.8,1.77.79,0,.39-.01.78-.02,1.17-.18-.06-.37-.11-.55-.18-.85-.32-1.95-.8-1.2-1.78ZM172.11,162.23c.21-.32.57-.54.86-.81.09.36.23.72.27,1.08.05.52-.29.68-.75.66-.47-.17-.64-.53-.38-.93ZM172.45,164.01c.23.21.45.42.81.76-.41.34-.75.7-1.15.93-.26.15-.7-.04-.58-.35.19-.49.6-.89.91-1.34ZM168.63,169.91c.14-.14.27-.25.39-.32.16-.19.3-.44.4-.79.78.28,1.57.55,1.97,1.37-.2.13-.4.27-.6.4.75.13,1.51.26,2.53.44-.81.48-1.39.81-1.96,1.15-.22-.22-.45-.43-.67-.65-1.58-.55-3.57.46-4.86-1.25.86-.29,2,.1,2.8-.35ZM164.55,159.03c.25-.36.69.2.87.49.61.98-.27,1.23-.86,1.63-.32-.72-.43-1.52-.01-2.12ZM159.31,168.21c.06-.49.51-.74.86-.49.25.17.31.69.36,1.07.06.51-.27.71-.75.71-.65-.25-.54-.8-.47-1.28ZM143.45,168.77c.16-1.19,1.5-1.24,2.33-1.71.5-.28,1.32.37,1.17.96-.36,1.38-2.02-.18-2.13.92-.82.12-1.51.95-1.36-.17ZM216.54,154.34c-.15,2.54-1.95,1.33-2.46,2.03.3-1.29,1.61-.52,2.46-2.03ZM213.67,153.07c.56-.14.88.06.9.55.02.46.21,1.07-.47,1.25-.63.17-1-.35-1.13-.77-.15-.5.36-.81.7-1.02ZM211.47,147.24c.47,0,1.25-.04,1.15.65-.23,1.65,1.3,3.62-1.14,5.1.6-1.8.52-3.32-.58-4.71-.34-.43-.17-1.04.56-1.04ZM205.72,152.24c.22-.98,1.32-.63,1.81-1.14.61,0,.86.56.64.78-.48.46-1.13.79-1.76,1.03-.48.18-.79-.2-.69-.67ZM195.25,135.78c.51,1.34-.05,2.58,1.03,3.43q-2.09-.93-1.03-3.43ZM194.3,141.27c.1-.21.5-.28.78-.42,1.46.31,2.22,1.42,2.91,2.53.1.16-.31.69-.55.99-.45.56-.93-.16-.9-.24.63-2.08-3.34-.51-2.24-2.85ZM197.43,95.49c.14-.19.72-.33.81-.24.84.98.46,2.01-.19,3.06-.38-.94-1.39-1.74-.62-2.83ZM197.88,98.72c-.31,1.31,1.88,1.84.12,2.83-.32.18-.94.44-.99.37-.75-1.13.35-1.82.87-3.2ZM193.85,101.61c1,.57,1.24,1.25.92,2.08-.1.11-.19.23-.21.22-.91-.51-1.31-1.2-.7-2.3ZM191.45,105.89c-.09,1.36,1.72,1.01,1.42,2.3-.04.15-.6.36-.75.27-.82-.51-1.44-1.17-.67-2.56ZM180.61,134.68c.12-.19.95-.2,1.15,0,1.13,1.2-.28,1.99-.55,3.02-1.21-1.07-1.21-2.06-.6-3.02ZM168.21,122.56c.17-.06.35-.07.53-.05.02.1.03.21.04.31.08.72.16,1.45.24,2.17-.31,0-.83.11-.9-.01-.42-.8-.55-1.63.08-2.42ZM164.36,122.81c.36.15.7.34,1.04.51-.34.25-.68.51-.82.61-.82.46-.9,0-.85-.37.04-.32-.38-1.18.62-.76ZM163.31,125.66c.55.02,1.06.01,1.03.95-.27.21-.64.5-1,.79-.27-.54-1.35-.18-1.24-.96.06-.4.59-.81,1.21-.78ZM161.19,140.62c-.04.44-.04.88-.6.9-.53.02-.78-.35-.63-.77.12-.35.46-.78.79-.86.68-.17.35.47.44.73ZM159.16,134.31c.1-.43.25-1.32.83-.92.73.5,1.39,1.34.9,2.58-.69-.55-2.09-.16-1.73-1.66ZM149.45,125.67c.41-.04.82.01.9.53.07.51-.23.71-.87.72-.25-.29-.56-.66-.88-1.02.28-.08.56-.2.85-.23ZM141.49,171.5c-.94-.27-.58-1.27-1.2-1.81,1.21-.32,1.64.29,1.92,1.12-.24.23-.48.46-.72.69ZM144,123.02c.06-.28.2-.54.22-.57,1.08.23,1.11.75,1.07,1.26-.02.2,0,.71-.45.44-.41-.25-.96-.48-.83-1.13ZM140.56,128.26c1.94-.36-.17,2.99,2.12,2.31.27-.5,1.05-.86.5-1.59-1.77-2.37,1.15-1.75,1.75-2.55,1.18-1.58,1.44.49,2.3.99-2.21-.51-3.04.63-3.19,2.46-.07.87.09,1.81-1.29,1.42-.87.44-.84,1.19-.43,1.83.79,1.2-.56.68-.81,1.02-.34.46-.67.21-.66-.37.06-1.85-1.85-3.59-.3-5.52ZM142.05,163.53c-1.64,1.2-2.52.73-3.81,1.04,1.23-1.23,2.13-.48,3.81-1.04ZM130.7,131.94c-1.04-.61-1.6-1.36-.7-2.51h.04c-.04-.07-.07-.15-.11-.22.09.08.16.15.24.22h3.45c-.25,1.87-2.66.94-2.93,2.51ZM133.05,146.81c-.14.26-.22.62-.44.75-.74.44-1.13-.37-1.63-.93.69.06,1.38.12,2.07.18ZM128.52,138.73s0,0-.01,0c0,0-.03-.05-.03-.04.01.01.03.02.04.03.16-.08.31-.19.47-.23-.09,0-.17-.03-.25-.06.18.01.37,0,.54-.09-.04.04-.08.07-.12.09.88-.18,1.63-1.31,2.64-.41.12.11,0,.75-.09.77-1.06.27-2.17.95-3.19-.08ZM127.3,158.78c.64-.23.82.33.84.89.11.83-.24,1.41-1.06,1.58-.61.13-.98-.31-.99-.86-.02-.8.53-1.37,1.2-1.61ZM126.8,176.49c-1.6-.51-1.14-1.77-.56-2.49.87-1.06,2.19-1.77,3.63-1.06.4.2.12.92-.46,1.16-.75.93-2.9.32-2.61,2.39ZM132.65,177.78c-.44-.05-1.15,1.38-1.44-.35-.2-1.19-.54-1.13-1.82-.92-.49.02-.79-.26-.75-.71.06-.69.54-.61.97-.62.06-.04.11-.08.16-.12.04.03.1.05.16.07.04-.01.07-.02.11-.04.9.75,3.46-2,3.15,1.56-.05.63.77,1.29-.55,1.12ZM124.94,229.27c.88.31.74,1.29,1.24,1.85-2.8.98-.55-1.42-1.24-1.85ZM129.52,216.58c-.47.43-.95.87-1.42,1.3-1.22-1.55-.38-3.32-.54-4.98.81-.3,1.62-.67,2.49-.17l.15.66c.2,1.15.41,2.3-.67,3.18ZM61.96,166.51c1.06.19,1.07,1.89,1.31,3.02-.94.04-1.99.53-2.61-.66.1-1.01.04-2.59,1.31-2.36ZM65.64,150.27c.29,1.56.35,2.56-.68,3.25-.15-.24-.27-.49-.44-.71-1.11-1.41.51-1.51,1.12-2.54ZM59.96,147.15c.28,1.13-.62,1.82-.41,2.65-.95-.93-.96-1.73.41-2.65ZM58.22,167.04c.55-.19.98-1.04,1.59-.6.71.51-.06,1.02-.24,1.54-.15.45-.01,1,0,1.5-.04.62-.09,1.23-.13,1.85-1.37-.63-.16-2.4-1.36-3.1.05-.4.09-.8.14-1.19ZM17.51,170.16c.94.27,1.64-.49,2.49-.6.01.39.03.78.04,1.18-.84-.23-1.95.74-2.53-.58ZM25.16,161.27c-1.45-.81-.34-2.13-.62-3.17.83.93,1.32,1.94.62,3.17ZM25.13,235.07c.18-1.07.29-1.81.45-2.54,0-.04.54-.06.56,0,.37.95.43,1.84-1.01,2.53ZM28.33,219.94c-.05.66-.15,1.09-.69,1.04-.75-.07-.61-.68-.6-1.17.01-.5.32-.78.8-.65.47.13.52.57.49.78ZM29.05,198.09c-.73.07-.77-.47-.71-.99.03-.24.2-.46.31-.69.46.24.86.53.93,1.25-.13.12-.32.41-.53.44ZM31.27,162.6c1.67.31-1.32,2.81,2.24,2.47-1.19.46-1.45.66-1.68.63-1.49-.24-1.07-1.37-1.28-2.38-.21-1.04.34-.79.72-.72ZM28.37,161.24c-.31-.87-.11-1.46.91-1.21,1.45.36.05,1.24.26,1.85-.39-.21-.78-.42-1.17-.63ZM32.2,234.75c-1.88-1.1-1.9-2.1-.98-3.72.35,1.33.6,2.28.98,3.72ZM31.56,223.51c-.73.09-.84-.38-.71-.95.06-.25.29-.69.31-.68.5.18.89.48.96,1.21-.15.11-.34.39-.56.42ZM30.93,203.83v-2.52c.84.88,1.29,1.54.54,2.48l-.27.04h-.27ZM31.68,189.18q.41.34.45,1.95c-1.26-.45-.12-1.85-.45-1.95ZM32.74,178.44c-.04.51-.49.76-.85.54-.26-.16-.34-.7-.39-1.08-.07-.5.25-.72.62-.76.79.24.66.81.62,1.3ZM35.36,169.46c.31,1-1.09,1.59-.58,2.6-.57,1.02-1.19,1.94-2.6,1.42-.65,1.05-.2,2.76-1.92,3.15-.23.8-.46,1.6-.68,2.4-1.45-1.02-.61-2.08-.07-3.13,0,0,0-.02,0-.03,0,0,0,0,.01,0,0-.01.01-.02.02-.03.17-.04.35-.08.52-.12.03-.02.06-.05.1-.07-.12-1.5.71-2.36,2.01-2.89h0s0,0,0,0c.42-1.24,1.03-2.45,1.2-3.72.21-1.58,1.57-1.31,2.12-1.14,1.23.37-.3,1-.13,1.54ZM36.13,189.39c.26-.98.46-1.73.66-2.47.26.91.96,1.91-.66,2.47ZM36.01,161.28c.2-.04.31-.13.39-.23-.09-.07-.18-.15-.28-.21.15-.06.28-.08.41-.08.07-.44-.12-1,.35-1.24,1.25,1.62,1.68,3.82,3.57,4.97-2.73.66-3.38-1.56-4.44-3.2ZM44.88,173.9c.08-.19.15-.38.24-.56.42-.8-1.26-2.23.42-2.42,1.31-.14,1.16,1.43,1.32,2.42-.08,2.24-1.39.14-1.98.56ZM48.27,165.21c.69-1.07,1.73-.81,2.93-.61-.84.98-1.27,2.07-2.52,1.14-.22-.16-.61-.22-.41-.53ZM49.93,173.46c.34-2.32-3.06-3.82-1.16-7.2.15,2.25,1.02,3,2.4,2.82.17-.08.33-.16.49-.27.08-.04.14-.11.2-.18v-1.88c.44.93,3.14,1.96-.02,2.75.22.41.43.83.65,1.24.66-.17,1.1.21,1.55.54.03,0,.06,0,.08-.01-.02.02-.03.02-.05.04.09.07.19.14.29.19-.44.35.98,1.54-.85,1.42-1.99-.14-1.01-1.27-1.07-2.07-1.41.3-1.54,1.87-2.51,2.6ZM52.13,174.07c1.21.34,2,.55,3.08.86-1.69,1.6-2.23.63-3.08-.86ZM59.26,186.96c-.47-.33-1.35-.39-1-1.22.21-.51.93-.44,1.38-.25.4.17.69.59.91.79-.41.73-.64,1.13-1.29.68ZM72.21,205.05c-.27-1.09-1.81-.02-2.04-1.19.87.02,1.72-1.15,2.55-.19.24.28.41,1.2-.52,1.38ZM73.97,210.85c.36-.58.77-1.49,1.48-1.13.69.35-.34,1.11-.15,1.74-.56.06-1.13.13-1.33-.61ZM78.55,219.6c-1.3-.03-.76-2.41-.88-3.64-.09-.96-1.28-.5-1.1-1.24-.6.05-1.13,1.18-1.65.33-.56-.91.33-1.35,1.1-1.65.21.41.42.82.63,1.23,1.38-.03,3.48-1.07,2.67,1.96-1.73.72,1.83,3.09-.75,3.02ZM83.42,219.89c.88,1.65-.57,2.14-1.75,3.23q.5-2.12,1.75-3.23ZM81.55,215.92c.92.06.81.66.75,1.26-.6.93-1.2,1.11-1.81,0-.16-.85.07-1.33,1.06-1.26ZM84.99,244.29c-1.09-1.11-.8-4.08-3.28-2.26-.86-.35-.3-1.65-1.29-1.91,0-.14,0-.28.01-.42-.02,0-.05.01-.08.01.04-.04.05-.08.08-.12,0-.25.01-.5.02-.75,1.62-.65,2.42,2.86,4.3.84.98,1.36.79,2.77.23,4.6ZM86.18,243.53c0-.27.16-.55.25-.82.36.32.72.64,1.13,1-.19.33-.33.76-.47.76-.58.02-.9-.38-.9-.94ZM87.6,250.17c-1.39.28.12-1.02-.64-1.46-.41-.24-.2-1.05.8-1.06,1.13-.01.82,1.05,1.4,1.49-.21.77-1.06.93-1.56,1.03ZM90.93,250.88c-.21.34-.46.72-.7,1.1-.25-.3-.51-.59-.76-.89.4-.29.59-.94,1.23-.82.24.05.64.15.23.6ZM94.82,256.6c.44,0,.8.07.86.67-.38.43-1.26.13-1.53,1-.09.3-.32-.31-.35-.52-.08-.72.21-1.16,1.02-1.15ZM92.46,247.01c-.41-.94,0-1.73.74-2.99.69,1.38.91,2.23.13,2.98-.16.16-.83.12-.88,0ZM93.32,262.93c-.15-1.07-.54-2.12.34-3.08.72,1.43,2.93-1.05,3.31,1.26.13.77-.07.87-3.65,1.82ZM97.54,252.48c-.46.8-.63,2.14-2.44,1.32.92-.64.84-2.02,2-2.2.51-.08.63.54.44.88ZM97.16,250.24c-.27-.06-.79.05-.78-.58,0-.86.81-.85,1.31-1.08.54-.25.65.23.71.66.13.91-.4,1.07-1.24,1ZM119.78,246.42c-.72.13-1.29-.2-1.82-.62.17-.35-.35-1.25.52-.97.6.19,1.82.3,1.3,1.59ZM123.3,246.35c-.41.22-.79.06-.86-.44-.07-.48.21-.74.69-.72.34.02.68.1,1.25.19-.49.45-.74.78-1.08.96ZM128.05,249.59c-.92-.36-.82.72-1.33.95-.44.13-.83.06-1.16-.25-1.59-1.74.31-3.12.51-4.67.12-.91,1.05-1.65.74-2.68-.05-.03-.09-.06-.13-.09h0s0-.07,0-.1c-1.47-.13-2.4-.6-1.42-2.29,0-.01,0-.02,0-.03,0,0,.03,0,.02,0,0,.01,0,.02-.01.03.13.96,1.64,1.11,1.42,2.29.03,0,.05,0,.07,0,0,0,0,0,0,0,.03.06.03.12.05.18.08.05.16.1.23.16,0-.03,0-.07-.01-.1.02.04.03.08.04.12.89.63,1.59,1.4,1.67,2.61-.41.45-.4.91-.03,1.37.43,1-.87,1.54-.65,2.49ZM155.41,276.49c-.12.47-.58.51-.55.51-.89-.08-1.32-.16-1.27-.71.07-.76.68-.59,1.16-.59.51,0,.77.33.65.79ZM152.97,271.39c-.16-.72.4-.83.97-.78.39.03.86,0,.57.66-.46.2-.07,1.13-.76,1.03-.31-.05-.7-.55-.78-.9ZM157.01,276.31c-.25-.89-.47-1.63-.72-2.49q1.58.94.72,2.49ZM144.47,242.08c.6.02.69-.09.62-.61-.07-.47-2.19-1.07.02-1.37.71-.1,2.12-.68,2.07.98-.03.85.67,2.45-1.21,2.15-1.33-.22-1.95.55-2.91,1.25.17-1.05-.19-2.45,1.42-2.4ZM142.44,243.1c-3.08-.83-2.33-3.08-2.5-4.88,1.57,1.2,1.7,3,2.5,4.88ZM140.23,198.8c.35-.07.77.17,1.16.27-.53.86,1.3,1.95.25,2.24-1.62.44-.19,1.76-1.16,2.28-.31-1.05-.72-2-.85-2.99-.08-.6-.51-1.57.61-1.79ZM141.02,209.84s.01-.02.02-.04c0,0,0,0,0,0-1.33-1.9-1.23-3.49,1.05-4.63-.5,1.23-.61,2.45-.01,3.68-.35.32-.69.63-1.04.95.02.03.03.05.05.08h0s-.05-.02-.08-.04c-1.33,2.47-1.51.34-1.95-.75.65.25,1.29.5,1.95.75ZM137.41,199.4c1.57-.06.4,1.64,1.3,1.99.04.61-.5,1.16-.8,1.01-.84-.42-1.25-1.33-1.47-2.22-.17-.7.43-.75.97-.77ZM137.97,248.22c-.1.12-.75-.1-1.04-.31-1.48-1.05.4-1.65.43-2.48.38.96,1.54,1.72.62,2.78ZM135.13,196.69c-.1.5-.14.65-.72.46-1.46-.48-.69-1.73-1.31-2.66,1.47.3,2.31.77,2.04,2.2ZM134.8,193.67c-.28-.96-1.21-1.52-.91-2.53-.02,0-.05.02-.07.02l.04-.04s-.04.05-.04.05c0-.02,0-.05,0-.07-.99.23-1.52-.29-1.85-1.17.13-.22.27-.43.43-.6-.01-.02-.03-.03-.04-.05.11-.07.21-.14.32-.2.03-.02.06-.03.1-.05.04-.02.07-.04.11-.05,0,0,0,0,0,0,.25-.07.55,0,.93.3,0,.53,0,1.06,0,1.59.09.06.19.13.28.19.48-.26.92-.86,1.32-.44,1.01,1.1-.29,1.93-.62,3.05ZM135.67,205.47c-1.49-.51-1.5-.52-1.14-2.82,0,0-.01,0-.02-.01l.02-.02s-.02-.06-.03-.08c.03.05.05.09.07.14,1.27.62-.16,2.17,1.1,2.79ZM133.15,210.45s-.03-.08-.05-.12c.03-.05.06-.1.1-.13.04.06.09.11.12.16.13-.04.3-.07.5-.09.39.33.77.67,1.16,1-.46.52-.9,1.06-1.73.82-.19-.6-.76-1.31-.1-1.65ZM132.58,213.55c.06-.43.19-.95.66-.76.87.36.97,1.29,1.65,3-1.24-1.15-2.51-.91-2.31-2.24ZM129.01,277.37c.08.08.18.13.28.16,1.29.17,2.37.59,1.59,3.34.03-2.16-1.56-2.21-1.81-3.37-.04,0-.08,0-.12-.01,0,0,.1-.08.09-.07,0,.03.02.06.03.09.02,0,.05,0,.07,0-.06-.04-.11-.08-.15-.15ZM131.93,286.35c-.47,1.37-1.53.69-2.83.58.81-1.29,1.25-2.4,2.46-2.19.67.12.53,1.15.37,1.61ZM132.75,266.41c-.02-1.24,1.44-.81,1.73.75.16.88.25,1.78.39,2.81-2.43-.39-2.09-2.28-2.11-3.56ZM135.06,247.12c-.25.89-.8.77-1.25.04-.81-.1-.31,1.25-1.04,1.01-.35-.11-.79-.81-.72-1.14.2-.97,1.17-.41,1.76-.66.45-.92-.96-.99-.76-1.72.03-.11.84-.16,1.16,0,.99.53,1.11,1.54.85,2.47ZM134.87,238.39q2.96,1.56,2.4,4.69c-.11-1.79-1.41-2.99-2.4-4.69ZM136.29,269.81c.12-.25.83-.52.99-.4.83.61.21,1.46.21,2.26-.06-.89-1.78-.67-1.21-1.86ZM142.53,289.62c-1.05-.62-1.34-1.37-.86-2.39,1.03.43,1.31,1.16.86,2.39ZM144.93,293.37c-1.27-1.68-.26-2.71,1.22-3.92.95,1.97.09,3.03-1.22,3.92ZM146.93,286.43c.83-.75-1.33-1.92.28-2.45.66-.22,1.5.08,1.57.69.12,1.02-.83,1.44-1.84,1.77ZM150.76,267.12c-.7,2.52-2.6,5.01-3.78,7.59-.77,1.69-2.09,3.22-1.38,5.38.08.26.08,1.7-.83,2.16-3.75,1.9-3.8,5.74-4.88,9.12-1.23-1.37-.9-3.67-2.76-4.82-.38-.23-.6-2.21,1.28-1.96,0,0,0,0,0,0,2.5-1.93,2.28-4.73,2.36-7.46.06-2.41.31-4.82.28-7.23-.02-1.36.45-2.97-1.24-3.95-.26-.15-1.48-1.35.23-1.98.7-.26,1.26-1.13.69-2.35-.44-.95-.24-2.23-.17-3.36.17-2.63,1.49-3.84,4.26-3.62,2.47.2,4.96.03,7.44.05.8,0,1.48-.09,1.62-1.06l-.05.03s0,0,0,0c0-.02.02-.03.03-.05-.32-.27-.62-.55-.93-.83-.2-.19-.52-.28-.61-.56-.06.07-.13.13-.23.19-.8.03-1.62.23-2.38-.2l-.03-.03c.04-.42.08-.84.12-1.26.82.04,1.73-.3,2.38.52,2.45-.77,5.18.22,7.61-1.03-1.18,2-2.98,2.3-5.1,1.71.11.71-.53,1-.83,1.49,0,0,.01.01.02.02.58-.44,1.13.54,1.88-.03.77-.58,1.37.35,1.5,1.02.05.27,1.2,2.39-1,1.25,0,0-.28.34-.29.53-.18,4.29-4.12,6.71-5.23,10.72ZM150.96,286.95c1.01-1.33,2.04-1.38,3.13-.8.08.04-.06.78-.27,1.05-1.16,1.43-1.76-.37-2.86-.24Z"/>
        <path class="cls-1" d="M128.86,267.52c.23-.01.47-.03.68-.08-.25-.02-.49,0-.68.08Z"/>
        <path class="cls-1" d="M133.94,190.98s-.08-.06-.12-.1c0,.07,0,.13,0,.2.03,0,.06,0,.09-.02h0s0,.04-.01.07c.06-.01.11-.03.17-.06-.04-.03-.08-.07-.13-.1Z"/>
        <polygon class="cls-1" points="193.55 77.39 193.55 77.39 193.55 77.39 193.55 77.39 193.55 77.38 193.55 77.39"/>
        <path class="cls-1" d="M65.58,68.32c.25.49,1.85.16.84,1.47-.71.92-.71,2.31-2.1,2.85-.86.32-.75,1.57-.1,1.56,1.26-.03,2.88-.34,3.65-1.19.96-1.04.57-2.87.25-4.22-.32-1.33-1.61-.53-2.54-.46,0,0,0,0,0,0,0,0,0,0,0,0Z"/>
        <path class="cls-1" d="M137.87,122.43c-1.11-1.29-.94,1.89-2.16.74.02-.16.03-.32.03-.49-.04.03-.07.08-.11.1-.61,1.3,1.16,1.07,1.3,1.89.12.02.22.01.33,0,.64-.63,1.48-1.23.61-2.25Z"/>
        <path class="cls-1" d="M51.85,168.88s-.02.03-.04.04c-.01,0-.02.02-.03.03.02,0,.04,0,.06-.01v-.06Z"/>
        <path class="cls-1" d="M71.13,39.18c-.11-.06-.19-.13-.29-.21.06.12.1.26.29.21Z"/>
        <path class="cls-1" d="M100.31,274.31s-.09.01-.14.02c.03.05.06.09.08.14.03-.03.05-.06.07-.09,0,0-.01,0-.02,0,0-.02,0-.05,0-.07Z"/>
        <path class="cls-1" d="M80.4,160.3c-1.76.24-1.02,2.17-1.96,2.93,1.44.06,1.46-.04,1.96-2.93Z"/>
        <path class="cls-1" d="M73.22,161.53s-.02.03-.03.05v.02s.06.02.1.03c-.01-.03-.01-.08-.02-.11-.01,0-.02-.01-.04,0Z"/>
        <path class="cls-1" d="M74.29,157.64c-.75,1.3-1.47,2.28-1.9,3.37-.33.84.46.46.84.52.59-1.12,1.78-2.08,1.06-3.89Z"/>
        <path class="cls-1" d="M78.44,163.24h-.17s0,.01.01.02l-.02-.02s.03.09.05.13c.01-.01.02-.03.03-.04.03-.02.06-.05.1-.09Z"/>
        <path class="cls-1" d="M123.94,256.39s.04-.01.05-.01c0-.01.01-.02.01-.03h.01s.01-.01.01-.01h-.01s-.03-.02-.04-.03c-.01.02-.02.05-.02.08h-.01Z"/>
        <path class="cls-1" d="M135.58,122.83s.04-.03.05-.05c.01-.01.01-.03.02-.04l-.08.1Z"/>
        <path class="cls-1" d="M103.92,279.88s.01-.04.01-.06c-.02,0-.05-.01-.08-.02-.01.03-.01.06-.01.1.02,0,.04-.01.08-.01Z"/>
        <path class="cls-1" d="M104.3,281.27c.49.08,1.36-.62,1.18-1.18-.18-.58-.98-.29-1.56-.21-.06.55-.4,1.3.38,1.4Z"/>
        <path class="cls-1" d="M136.84,124.66l.11.1s0-.06-.01-.09c-.03,0-.06-.01-.1-.01Z"/>
        <path class="cls-1" d="M125.35,135.01c-.25.01-.66.63-.62.93.17,1.65,1.18.72,1.92.63-.48-.51-.25-1.65-1.3-1.57Z"/>
        <path class="cls-1" d="M104.77,265.82c-.45.67-.44,1.14.46,1.28.72.11,1.23-.09,1.17-.96-.09-1.48-.16-2.97-.27-5.14-1.71,1.75-.51,3.54-1.36,4.81Z"/>
        <path class="cls-1" d="M126.65,136.57s.05.05.09.08h.05s.01-.05.02-.09c-.05,0-.11,0-.16.01Z"/>
        <path class="cls-1" d="M34.63,228.95c.01.23.27.44.38.6.7.02.83-.39.83-.8,0-.29-.17-.57-.27-.86-.45.23-.98.44-.93,1.05Z"/>
        <path class="cls-1" d="M68.12,324.8c.26-1.52-.67-3.76-1.27-3.47-3.14,1.49-2.9-.83-3.3-2.93-.61.82-.04,1.88-.96,2.07-.11.64.81,1.02.4,1.9-.45.98.66,1.61,1.2,1.05,2.4-2.47,2.72.49,3.92,1.38Z"/>
        <path class="cls-1" d="M51.64,153.02c.86-.97,1.32-1.48,2.18-2.45-1.54.35-2.03.77-2.18,2.45Z"/>
        <polygon class="cls-1" points="27.25 257.13 27.25 257.13 27.25 257.13 27.25 257.13"/>
        <path class="cls-1" d="M47.17,153.12c.02-.12-.4-.41-.64-.45-1.34-.24-1.18,1.03-1.88,1.9,1.52-.01,2.32-.33,2.53-1.45Z"/>
        <path class="cls-1" d="M66.85,316.29h-.02s-.01.05-.02.08h-.01c.06.01.13,0,.18-.01-.03-.02-.08-.05-.12-.08h-.01Z"/>
        <path class="cls-1" d="M52.66,69.37c.89.23.93-.86,1.02-1.59-.29-.51.87-1.36-.48-1.69-1.11-.27-1.26.44-1.43,1.14-.23.91.19,1.97.89,2.14Z"/>
        <path class="cls-1" d="M53.67,144.99h-.15s-.01.05-.01.08c.03-.01.06,0,.1,0,.02-.02.04-.05.06-.08Z"/>
        <path class="cls-1" d="M55.67,62.62c-.4-.66-.56-.86-.64-1.09-.23-.6-.62-1.31-1.12-.42-.48.86.49,1.06,1.76,1.5Z"/>
        <path class="cls-1" d="M56.02,145.03c.62-.04,1.23-.33,1.07-1.12-.09-.48-.27-1.12-.62-1.34-.48-.29-.92.2-1.27.62-.49.61-1.02,1.19-1.53,1.79.77.03,1.57.1,2.34.04Z"/>
        <path class="cls-1" d="M61.67,79.92c-.72.84-.39,1.96.4,1.91,1.4-.06.61-1.76,1.22-2.63.32-.45-.42-1.02-1.19-.93-1.56.17-.83.95-.43,1.65Z"/>
        <path class="cls-1" d="M65.81,324.56c-.12,1.26.7,1.4,2.4,1.88-1.14-1.03-1.46-1.78-2.4-1.88Z"/>
        <path class="cls-1" d="M62.59,320.38s-.09.01-.12.02c.01.02.03.05.04.08.03,0,.05-.01.08-.01-.01-.03,0-.05.01-.09h-.01Z"/>
        <path class="cls-1" d="M61.76,319.21c.12-.89-.03-1.93,1.02-2.41,1.26-.57,1.64,1.01,1.87,1.34,1.35,2.03.97-.67,1.53-.47-.28-.71-1.34-1.78.64-1.39.78-1.76-.66-3.33-.53-5.04-3.13-1.42-1.43-4.69-2.48-6.91.09,0,.18-.01.27-.02-.12-.11-.25-.22-.4-.31-1.09.76-2.53-.1-2.29-.64,1.33-3-1.14-3.06-2.68-3.8-.84-.41-1.42-.85-1.24-1.87-.02-.09-.06-.17-.12-.24.06.07.11.15.12.24.58-.25,1.09-.56.82-1.31-.26-.73-.92-.63-1.52-.68-.52.51-.48.82-.26,1.06-.22-.25-.27-.56.25-1.07-.24-2.35-2.16-3.78-3.17-5.71,0,0,0,0,0,0-.19-1.71-1.68-2.57-2.5-3.86-.01.64-.02,1.28-.03,1.92-.18.27-.27.5-.28.7.14-.12.28-.24.41-.37.14.25,0,.62.06.9.09.03.19.06.31.07,0,0,0,0,0,0h.02s0,0-.01,0c0,0,0,0,0,0-.04,0-.08.02-.12.04-.03.03-.06.06-.09.1.08.09.19.15.38.19.15.94.31,1.9-.78,2.41-.57.27-.79-.03-1.07-.61-.68-1.39.11-2.05.9-2.74,0-.2.1-.44.28-.71.01-.64.02-1.28.03-1.92,0,0,0,0,0,0h.01c-.73-.97-.14-3.19-2.47-2.62.57-2.16-1.16-3.37-2.04-4.93-.6.37-1.72.46-.78,1.59.69.85,1.07,1.96,1.85,2.73-.78-.78-1.16-1.89-1.85-2.73-.93-1.13.18-1.23.78-1.59-.62-.87-1.23-1.73-1.86-2.59,0,0,0,0,0,0-.48-.86-.97-1.71-1.45-2.57-.76.09-1.3.46-.82,1.2.25.38.45.91.77,1.24-.32-.34-.52-.87-.77-1.25-.48-.74.05-1.12.82-1.2.12-.18.14-.36.03-.57,0,0,0,0,0,0-.73-1.7-.8-3.84-3.04-4.51.03.04.05.1.09.14.61,1.05.17,2.8.94,3.74-.77-.94-.33-2.69-.94-3.74-.03-.04-.05-.1-.09-.14-.19-.21-.4-.42-.59-.63h0c.24-1.16,1.34-2.48-.6-3.21h-.01c-.74,1.12-.65,2.06.2,2.87-.85-.81-.95-1.76-.2-2.88h0s0,0,0,0c-.73-.66.61-1.93-.72-2.43-.38.78-.47,1.47.02,1.98-.49-.51-.4-1.2-.02-1.98-.76,1.44-2.77-3.98-3.04.55,0,.04-1.19.26-1.48,0-1.31-1.18-2.5-2.49-3.75-3.76.99-1.04.51-3.25,2.51-3.47-1.25-.17-2.34-1.85-3.74-.35,0,0,0,0,0,0h0s0,0,0,0c0,0,0,0,0,0l-.08-.03s.02.02.02.03c.11.13.17.27.22.41.9.89,1.13,1.9.5,3.08-1.04-.01-2.3.32-2.26-1.36-.03,0-.06,0-.1,0,0,0,0,0,0,0,0-.03,0-.04,0-.07-.65.18-1.06,1.45-1.93.43-.21-.25-.24-.88.36-.91.55-.03,1.57-1.12,1.57.48.03,0,.07-.03.1-.03,0,.04,0,.06,0,.1,0,0,0,0,0,0,1.3.11,1.74-.61,1.65-1.84.04.04.07.07.11.11-.05-.14-.11-.28-.22-.41-.71,0-1.71.1-1.04-1.07.87-1.5-.18-1.46-1.01-2.31-1.84-1.89-1.07.88-2.03.85-1.96-.06-2.14.44-1.02,2.11.72,1.07,1.54,1.62-.61,1.19-.8-.15-1.32,1.26-.98,1.58,1.92,1.81.71,4.74,1.79,6.18,2.91,3.87,1.75,9.7,6.42,12.54.12.06.26.34.21.42-2.19,3.63,1.47,5.84,2.63,8.13,4.8,9.5,11.03,18.19,17.9,26.37.4-.42.81-.85,1.21-1.27-1.41-1.6.8-2.57,1.04-3.87.3-1.61,1.43.69,2.18-.06-.07.91.95.87,1.35,1.38,0,0,0,0,.01-.01.16.09.3.19.43.28,2.27.08,2.67,2.06,2.53,3.6-.09.95.19,1.85.13,2.73-1.37.59-1.04-1.98-2.43-1.15.09-1.73.89-3.54-.55-5.09-.21.32-.38.79-.66.88-.4.12.95,2.9-1.01.63-1.04-1.2-1.79.78-2.8.94-.09-.08-.15-.16-.22-.23-.4.42-.81.85-1.21,1.27.54,2.04,3.69,1.88,3.73,4.38,0,.19.45.47.73.53.57.1.67-.33.63-.77-.1-1.2.38-2.17,1.24-2.98v.11s0,0,0,0c0,0,0,0,0,0h0s-.01.02-.01.02h0s0,0,0,0c-.14,1.84.89,3.69,1.86,4.58,1.47,1.36,1.93.98,1.93,2.4.19-.02.4-.03.59-.03ZM64.58,315.38c-2.19-1.49-4.31-3.11-1.53-5.8.96,1.75-.62,4.21,1.53,5.8ZM62.04,305.58c.33-.07,1.05-.17.97.28-.12.71-.7,1.25-1.48,1.46-.07-.67-.69-1.5.51-1.74ZM28.88,269.92c.12-1.19-1.57-2.6.67-3.7-.08,1.37.47,2.64-.67,3.7ZM26.96,263h0c-.76.07-.45,1.97-1.63,1.05-.4-.31-1.34-1.1-.28-2.01.33-.29.56-1.17.36-1.52-.51-.9-.16-1.62.55-1.72.91-.13.17.96.57,1.33.27.26.55.61.89.69.56.13.88-1.46,1.5-.45.58.95-.72,1.24-1.17,1.84.97.75,1.94,1.5,2.96,2.29-2.07,1.31-2.58-.85-3.74-1.5ZM32.66,271.81c-.74-.44-1.54-.76-.93-1.71.18-.29.71-.85.87-.47.25.61.07,1.4.07,2.18ZM39.08,264.46h0s0,0,0,0c0,0,0,0,0,0ZM38.99,278.57c-.79-.79-1.31-1.31-2.14-2.13,1.72-.06,2.26.43,2.14,2.13ZM44.74,275.98s0,0,0,0c0,0,0,0,0,0,0,0,0,0,0,0ZM51.1,286.12s0,0,0,0c0,0,0,0,0,0h0ZM48.61,283.53s0,0,0,0c-.09.91.04,1.62.44,2.07-.4-.45-.52-1.16-.44-2.07ZM49.67,303.55c-2.4-1.56.83-2.51.06-3.81,0,0,.29-.28.46-.29.54-.05.32.41.37.66.26,1.27-.29,2.35-.88,3.44ZM53.61,289.98s0,0,0,0c0,0,0,0,0,0,0,0,0,0,0,0Z"/>
        <path class="cls-1" d="M56.86,307.15s0,0-.01.01c.05.07.09.16.12.25.12,0,.22.01.33.02-.13-.09-.28-.19-.43-.28Z"/>
        <path class="cls-1" d="M67.84,306.94c-.49-.63-1.02-1.25-1.53-1.88-.04-.01-.06,0-.1-.02.08.1.16.22.22.35-1.95,1.5-1.43,3.28,0,4.52.5.43.37.69.2.91,3.19-.97,3.22-1.27,1.2-3.88Z"/>
        <path class="cls-1" d="M61.18,319.24c-.04.6-.34,1.48-.08,1.73.51.45.86-.41,1.38-.57-.24-.4-.47-.78-.71-1.19-.19,0-.4.01-.59.03Z"/>
        <path class="cls-1" d="M51.1,148.3c2.45,1.5,2-1.61,3.28-2.16.74-.32-.93-.38-.86-1.07-1.13-.09-1.28.67-1.23,1.57.06.95-.57.93-1.21.93-.04-.1-.06-.21-.14-.28-.04-.05-.19-.05-.25-.02q-1.76,1.33-.51,3.27c.3-.75.61-1.49.91-2.24Z"/>
        <path class="cls-1" d="M228.24,171.26s.03.04.05.06c.01-.05.03-.11.04-.15l-.08.06-.02.02Z"/>
        <path class="cls-1" d="M56.86,68.75c.57-.11,1.28-.64,1.09-1.14-.52-1.31.18-2.29.54-3.36.23-.68.69-1.48-.3-1.77-1.04-.31-1.84.87-1.67,1.39.48,1.44.02,2.7-.24,4.02-.1.48-.09.8.58.87Z"/>
        <path class="cls-1" d="M228.11,167.82c0,1.12-1.56,2.35.23,3.34h0c1.61-1.19.58-2.27-.23-3.34Z"/>
        <path class="cls-1" d="M244.08,170.26c-.83-1.9.49-3.08-.64-4.16-1.84,1.21-1.29,2.37.64,4.16Z"/>
        <path class="cls-1" d="M251.61,160.93c.63.13,1.09-.08.94-.76-.08-.35-.45-.86-.76-.91-.75-.14-.29.8-.71,1.01-.33.68.19.59.54.67Z"/>
        <path class="cls-1" d="M251.44,166.06c-.08,1.19-.48,2.24.64,3.06-.61-.9,1.11-2.13-.64-3.06Z"/>
        <path class="cls-1" d="M245.3,170.53c.04,1.07,1.11.6,1.21.48.77-.91.31-1.68-.49-2.32-1.24.21,1.02,1.81-.72,1.84Z"/>
        <path class="cls-1" d="M239.68,169.82c.8-.09,1.41-.51,1.35-1.33-.03-.37-.54-.7-.94-1.17-.59.71-1.24,1.18-1.43,1.81-.23.67.47.76,1.01.7Z"/>
        <path class="cls-1" d="M201.21,46.67c.39.63.92,1.22.91,1.93.65-.96.8-1.8-.86-2.22,0,.1,0,.19-.05.28Z"/>
        <path class="cls-1" d="M203.05,56.06s0,0-.01,0c.05.11.1.22.14.34-.88.47-.95.98-.48,1.51.02,0,.04.02.06.02,0,0-.02.01-.03.02.1.11.22.22.36.33.7,1.8-2.24,1.53-1.83,3.16.72.33,1.24.87,1.67,1.51.04,0,.07.01.1.01.45-1.7.9-3.4,1.36-5.08-.45-.61-.9-1.21-1.35-1.83Z"/>
        <path class="cls-1" d="M228.04,167.73s.04.05.06.09c0-.05,0-.09-.01-.13-.02,0-.04.01-.06.02.01,0,.01.01.02.01h-.01Z"/>
        <path class="cls-1" d="M195.38,32.86c.22-.27.63-.57.66-.88.04-.68-.51-.82-1.06-.69-.2.04-.76-.04-.45.47.23.38.06,1.05.86,1.1Z"/>
        <path class="cls-1" d="M222.45,152.6c.83-.59.1-1.43.18-2.62-.72.85-1.83,1.03-1.46,2.06.16.47.77.92,1.28.56Z"/>
        <path class="cls-1" d="M228.03,167.71c-.67-.43-.56-.89-.53-1.71.05-1.33,1.57-3.26-.88-4.24-.09,1.65-.11,3.2-.26,4.74-.15,1.53.57,1.61,1.67,1.21Z"/>
        <path class="cls-1" d="M117.82,252.75c0,.59.25,1,1.07.95.23-.12.81-.08.74-.66-.08-.68-.54-1.13-1.22-1.17-.61-.05-.59.48-.59.88Z"/>
        <path class="cls-1" d="M127.16,294.65c.39-.26.56-.84.8-1.24-.08-.61-.44-.78-.89-.61-.53.19-.86.63-.68,1.23.11.35.32.93.77.62Z"/>
        <path class="cls-1" d="M124.07,299.45c.26.01.6-.15.76-.34,1.46-1.86.13-3.15-.99-4.81-.83,1.84,1.03,3.11.08,4.53-.13.19-.43.6.15.62Z"/>
        <path class="cls-1" d="M124.42,329.71c-.62-.19-1.21-1.49-1.98-.54-.42.52-.68,1.83.73,2.22,1.12.32.91,1.45,1.27,2.58,1.43-1.7,4.01-3.07-.02-4.27Z"/>
        <path class="cls-1" d="M69.32,314.61c-1.09.46-1.41,1.58-2.34,1.74,1.69,1.1,1.49,3.74,3.63,4.41,1.45-2.42-2.35-3.58-1.29-6.15Z"/>
        <path class="cls-1" d="M124.1,270.13c.73.19,1.41-.49,1.33-1.29-.13-1.17-.48-2.32-.76-3.54-2.05,1.11.14,2.36-.59,3.42-.31.43-.97,1.15.02,1.41Z"/>
        <path class="cls-1" d="M121.7,325.94c-.03.42.43,1.25.68,1.25,1.33.01,1.11-1.12,1.26-1.97-.85-.32-1.81-.85-1.93.72Z"/>
        <path class="cls-1" d="M126.32,309.63q-1.26-1.75-2.72-.78c.77.23,1.52.44,2.72.78Z"/>
        <path class="cls-1" d="M123.86,287.36c.98-.69,1.41-1.45.64-2.42-.11-.15-.7-.13-.89.03-1.18.93.21,1.55.25,2.39Z"/>
        <path class="cls-1" d="M120.55,318.46c-.1-.15-.32-.23-.48-.34-.39.83-1.34,1.47-.55,2.72-.71-1.32,1.98-.97,1.03-2.37Z"/>
        <path class="cls-1" d="M117.93,294.18c.06.15.64.28.77.17.78-.69.16-1.41.02-2.12-1.06.37-1.14,1.11-.8,1.95Z"/>
        <path class="cls-1" d="M117.25,295.33c-.96,1,1.18,1.2.58,2.21-.16.28.06.77.12,1.23,1.56-1.16.66-2.21,0-3.23-.11-.16-.62-.29-.7-.2Z"/>
        <path class="cls-1" d="M118.49,335.98c-.04.48-.09,1.06.68.97.21-.03.4-.32.54-.45-.05-.71-.46-.97-.91-1.2-.11.24-.28.45-.3.69Z"/>
        <path class="cls-1" d="M124.25,323.7c-.25-.26-1.11-.41-1.17-.3-.43.72.46,1.07.61,1.67.27-.44,1.35-.56.56-1.36Z"/>
        <path class="cls-1" d="M125.15,277.9c-.28-.03-.58.14-.87.21,1.56,1.44-2.02,3.28.37,4.64,1.01-1.21.56-2.82,1.06-4.17.27-.71-.24-.66-.56-.69Z"/>
        <path class="cls-1" d="M119.95,328.82c-.68.06-1.38.6-2.01-.11-.02.41-.23.99-.03,1.19.89.95.08,2.44,1.27,3.6.34-1.32.64-2.4.87-3.48.08-.38-.05-.81-.1-1.2Z"/>
        <path class="cls-1" d="M123.64,325.16s-.01.03-.01.05c.02.01.05.02.08.02h.01s0,0,0,0c0-.06-.01-.12-.03-.17-.02.03-.03.05-.04.09h0Z"/>
        <path class="cls-1" d="M91.09,332.93c-1.02.73-.24,1.43-.02,2.17.19.62-1.23,1.12-.19,1.87,1.15.23.95-.93,1.27-1.42.52-.78.48-1.77-.31-2.58-.29-.29-.48-.23-.74-.04Z"/>
        <path class="cls-1" d="M93.3,338.28c.35-1.05.58-1.73.81-2.41-1.38.51-1.12,1.26-.81,2.41Z"/>
        <path class="cls-1" d="M99.67,334.13c-1.48-.32-.56,1.43-1.36,2.29-.8-1.53-1.98-2.3-3.12-3.11-.4-.28-1.14-.31-1.38.24-.16.4-.06,1.29.18,1.4,2.04.95,3.59,2.36,4.83,4.24.39.59,1.19.49,1.18-.49-.01-.8.34-1.69-.35-2.4.77-.74,1-1.96.02-2.17Z"/>
        <path class="cls-1" d="M74.98,320.62c.08.25.09.63.25.71.72.34,1.22-.13,1.76-.57-.68-.49-1.34-.32-2.01-.14Z"/>
        <path class="cls-1" d="M77.44,231.46c-.71-.85-.34-2.33-1.47-2.93,0-.12,0-.24,0-.36-.05.01-.09.01-.14.03-.77,1.86-.17,2.91,1.61,3.26Z"/>
        <path class="cls-1" d="M70.8,309.89c.44,1.29-.13,2.84,1.99,2.63-.48-.95-.57-2.03-1.99-2.63Z"/>
        <path class="cls-1" d="M107.03,335.2c-.11-.08-.68.19-.73.39-.44,1.45,2.02,1.04,1.71,2.53.33-1.26-.04-2.21-.98-2.91Z"/>
        <path class="cls-1" d="M116.94,289.75c.25-.11-.52-.34-.78-.55-1.3-.95-1.47,1.18-2.51.92.29.58.48,1.54.9,1.64,1.14.3,1.38,1.59,2.46,1.87.61-1.47-3.14-2.47-.06-3.89Z"/>
        <path class="cls-1" d="M117.48,305.25c-.61.69.17,1.11.27,1.64.52,3.2,3.75.88,5.06,2.99.39-3.18-1.39-4.03-3.48-4.87-.85-.34-1.28-.41-1.85.24Z"/>
        <path class="cls-1" d="M122.87,253.75c-.36-.78-.57-1.68-1.42-2.09.3.83-.33,2.35,1.42,2.09Z"/>
        <path class="cls-1" d="M107.7,300.51c2.07-2.55-.6-3.15-1.25-5.34-.67,2.54.6,3.61,1.25,5.34Z"/>
        <path class="cls-1" d="M113.41,268.31c-1.1-1.91-2.93-3.27-2.63-5.57.12-.96-.8-.83-1.34-.72-.77.16-.49.9-.31,1.25,1.02,1.88,1.11,4.51,4.29,5.04Z"/>
        <path class="cls-1" d="M108.42,261.31c.14.02.46-.4.48-.63.08-1.07-.41-1.7-1.71-1.64.99.53-.28,2.06,1.22,2.28Z"/>
        <path class="cls-1" d="M110.51,253.08c1.84-.16,1.68-.97.59-1.85l-.09.15c-1.12.04-2.23.08-3.35.13h-.05c.39,1.46,1.68,1.67,2.89,1.56Z"/>
        <path class="cls-1" d="M156.15,340.32c-1-.32-.78.62-.81,1.18-.03.61-.11,1.26.89,1.25.73-.01,1.11-.39,1.48-1.07-.49-.45-.95-1.16-1.57-1.35Z"/>
        <path class="cls-1" d="M162.92,336.41s.04.02.08.03c-.01-.03-.02-.05-.03-.09h-.05s.01.03.01.05Z"/>
        <path class="cls-1" d="M79.65,129.02c-.03.43.25.78.72.78.32.01.66-.14,1.19-.27-.47-.44-.71-.78-1.04-.96-.38-.18-.84-.08-.87.44Z"/>
        <path class="cls-1" d="M164.6,331.5c-.52-.38-1.14-.24-1.71.15-2.42,1.64-.59,3.16.08,4.71,3.25-.04.4-2.59,1.4-3.58.31-.31.88-.83.24-1.28Z"/>
        <path class="cls-1" d="M167.32,339.1l.06-.06s-.04-.06-.08-.08c-.01.05-.01.11-.01.15,0,0,.01,0,.02-.01Z"/>
        <path class="cls-1" d="M166.73,337.09c-.27-.08-.96.38-.96.57.02.92,1.06.8,1.54,1.3.02-.7.57-1.58-.58-1.87Z"/>
        <path class="cls-1" d="M190.95,315.36c.18-.09.37-.18.56-.26.88-.97,2.2-1.32,3.28-2,.24-.26.45-.55.63-.9-.03.01-.05.03-.09.04-1.67.75-4.41-.01-4.38,3.13Z"/>
        <path class="cls-1" d="M167.3,339.12s.03-.01.05-.01c.01-.02.02-.04.02-.06l-.08.08Z"/>
        <path class="cls-1" d="M194.59,319.76c-1.19.83-2.59.13-3.87.31,1.45,1.07,2.91,2.23,3.87-.31Z"/>
        <path class="cls-1" d="M161.73,336.55c-1.23-1.78-2.56-.13-3.04.4-.6.64-.17,1.95,1.34,1.88.27-.01.56.21.84.33-.12.13-.21.32-.37.38-2.17.75-.82,1.64.01,2.25.78.58.81-2.63,2.18-.58.09-.46.41-1.06.23-1.36-.69-1.18.25-2.3,0-3.43-.41-.11-.73.81-1.19.14Z"/>
        <path class="cls-1" d="M164.07,339.58c-.11.14-.4.32-.42.53-.06.58.37,1.03.83,1.1.54.08.34-.53.37-.85.02-.42-.1-.8-.77-.77Z"/>
        <path class="cls-1" d="M159.7,332.48c.06-.58-.43-.57-.78-.53-.34.04-.85.17-.98.42-.18.34.02.78.55.82.54.04,1-.09,1.21-.71Z"/>
        <path class="cls-1" d="M159.35,328.37c.42.28.84.61,1.3.86.62.32.99.06,1.02-.61.02-.51.1-1.06-.68-1.14-.7-.08-1.21.18-1.64.89Z"/>
        <path class="cls-1" d="M193.99,325.3c.23-.06.57-.53.52-.68-.35-.92-.64-1.95-1.28-2.63-.32-.35-1.32-.09-2.02-.09.1.35.19.72.29,1.09-1.01.19-.14,1.4-1.09,1.81-.08-.99-.15-1.91-.26-3.32-2.49,4.28-2.04-.11-2.97-.42-.05-.63-.11-1.27-.16-1.9.09-.76,1.91-.9.77-2.07-.31-.32-.92-.71-1.26-.61-1.11.34-.64,1.3-.59,2.07.03.99-.62,1.29-1.44,1.43-2.79-1-5.42.24-6.32,2.99-1.5-.08-1.14,1.03-1.28,1.92-.28,1.76-1.94.75-2.87,1.3-.35.21-.86.03-.89-.51-.1-1.47,1.84-.12,1.93-1.36.57-.01,1.53.05,1.13-.78-.4-.86-1.26-.69-1.81.16-2.98-.56-3.56,1.59-4.12,4.21-1.3-3.51-3.9-1.61-6.1-2.54,1.36,1.68,1.55,3.12,1.71,4.77.1.99,2.79-.26,3.42,1.59.01.06.01.14,0,.23,1.81-.09.32-2,1.5-2.89.43,3.16,1.75,3.86,4.11,1.87,1.16-.98,2.59-.82,3.69-.06,1.55,1.06-.26,2.24-.34,3.43,3.61-.85,3.64-.96,2.68-6.67,1.7-.55,2.7,1.77,4.77.95,1.09-.44,1.39.34,1.41-1.58,0-.57.06-1.14.1-1.71-.4.36-.78.75-1.22,1.05-.62.42,1.52,1.46-.3,1.38-.54-.02-1.45-.84-.75-1.66.83-.97,1.01-1.3-.5-1.6-.52-.1.27-.86.61-.96,1.36-.37,2.11.2,2.22,1.52.04.04.07.08.11.12,0,0,0,0,.01-.01,0,0,0,0-.01.01,2.07,2.4,3.88,1.79,5.49-.78.84-.21.33,1.19,1.13.95ZM172.21,329.51s-.22-.41-.16-.52c.73-1.19,1.84-.11,2.88-.1-.91.21-1.81.43-2.72.62Z"/>
        <path class="cls-1" d="M192.38,333.08c1.12-1.95,3.68.78,3.81-2.5-.72,1.86-3.47-.89-3.81,2.5Z"/>
        <path class="cls-1" d="M123.47,121.63c-.1-1.06-1.18-.63-1.63-1.54-.32,1.43.33,1.76,1.03,2,.14.05.61-.31.6-.46Z"/>
        <path class="cls-1" d="M72.74,136.22l.04-.04s0,0,0-.01c0,0-.02,0-.02,0-.01.01-.01.03-.02.04Z"/>
        <path class="cls-1" d="M226.18,276.86c-.03.07-.06.14-.09.21.04-.02.08-.05.12-.07-.02-.05-.02-.09-.03-.14Z"/>
        <path class="cls-1" d="M183.43,336.46c-.88-.06-.08,1.57-1.25,1.42.21.31.43.63.75,1.1.55-.57,1.06-1.04,1.44-1.6.05-.09-.59-.89-.95-.91Z"/>
        <path class="cls-1" d="M176.23,336.96c-.37-.75-.63-1.32-.91-1.89-.27.78-.78,1.99.91,1.89Z"/>
        <path class="cls-1" d="M169.23,332.05s.05-.01.08-.01c0-.03.01-.05.01-.09h-.09v.1Z"/>
        <path class="cls-1" d="M168.81,338.84c-.4.25-.96.19-1.46.27-.6,1.56.53,2.14,1.67,2.27,1.02.12,1.77-.66,1.54-1.83-.2-.98-.75-1.32-1.74-.71Z"/>
        <path class="cls-1" d="M166.59,334.92c-.03.51-.91,1.23.11,1.36.8.11,1.57-.58,1.15-1.62-.2-.54-.91-1.06.11-1.41,1.2-.4,1.27-.37,1.27-1.2-2.1.26-2.47.74-2.63,2.87Z"/>
        <path class="cls-1" d="M183.44,334.31c.23-.09.34-.46.55-.75-.35-.31-.67-.81-.97-.81-.57,0-.33.58-.33.93-.01.51.26.82.75.62Z"/>
        <path class="cls-1" d="M66.32,84.07c-1.27,2.04-1.09,4.09-.29,6.43,1.83-1.39,3.03-5.29,2.1-6.64-.53-.75-1.19-.77-1.81.21Z"/>
        <path class="cls-1" d="M72.55,198.29s.03.04.04.06c.05-.05.11-.1.17-.15-.07.03-.14.06-.21.09Z"/>
        <path class="cls-1" d="M124.98,145.25c-.25.27-.61.81-.53.93.82,1.19-.09,2.89,1.13,3.93h.01c1.27-1.04,1.57-4.02.48-4.78-.37-.26-.74-.46-1.1-.09Z"/>
        <path class="cls-1" d="M127.68,141.52c-.19-.44-1.02-.52-1.39-.09-.81.95-.63,1.97.27,3.07.59-1.19,1.59-1.89,1.12-2.99Z"/>
        <path class="cls-1" d="M129.14,119.37c-.57-.11-1.05,1.23-.91,1.31.78.54-.12,2.03.92,2.02,1.7-.02.1-1.13.37-1.68.7-.75.39-1.5-.38-1.65Z"/>
        <path class="cls-1" d="M127.62,126.25c2.22.16,2.25-1.2,2.61-2.27.26-.75-.43-.56-.66-.53-1.78.27-.55,2.07-1.96,2.79Z"/>
        <path class="cls-1" d="M126.57,124.1c-3.46-.05-6.69-.34-9.84.96,4.44,5.01,6.33,4.84,9.84-.96Z"/>
        <path class="cls-1" d="M69.1,195.11s-.03-.07-.03-.07c0,.03,0,.04,0,.07.01,0,.02,0,.03,0Z"/>
        <path class="cls-1" d="M67.76,140.07c.03.38.78,1.05.99.98,1.13-.4.76-1.71,1.25-2.67-.63.71-2.36.18-2.24,1.69Z"/>
        <path class="cls-1" d="M70.18,136.81c1.18,1.1,1.7-.52,2.58-.63,0-.02.01-.03.02-.05-.05-.34-.09-.69-.54-.83-.01-.11-.02-.22-.03-.33-.04,0-.07,0-.1,0-.62.37-1.25.73-1.87,1.1-.37-.57-.73-1.13-1.09-1.69.1.93-1.3,2.56,1.03,2.43Z"/>
        <path class="cls-1" d="M190.34,316.53c-.02-.15-.05-.3-.11-.46-1.17,1.03-.81,2.71-1.64,3.93-.31.46.62.43,1.05.47,0-.02,0-.04,0-.06-.41-1.38.62-2.57.71-3.89Z"/>
        <path class="cls-1" d="M62.4,178.17c-.71.23-.56,1-.24,1.23,1.38.98.95,2.9,2.19,3.9.01,1.41.68,2.58,1.29,3.78.64,1.03,1.3,2.07,1.95,3.11.23.06.44.14.66.2.66-1.74-.87-2.71-1.42-4.02-1.21-.98-.68-2.79-1.81-3.81-.97-.99-1.19-2.28-1.55-3.54-.13-.45-.42-1.06-1.07-.85Z"/>
        <path class="cls-1" d="M129.28,135.47s0-.02,0-.03l-.06.11s.04-.05.06-.08Z"/>
        <path class="cls-1" d="M121.09,143.29c.6,1.07,1.32,1.49,2.28.83.21-.16.11-.76.15-1.16-.69.58-1.57.24-2.43.33Z"/>
        <path class="cls-1" d="M204.27,173.52c1.13.21,2.26.47,3.4.64.7.11,1.4.26,1.77-.77.43-1.2-.61-1.21-1.1-1.46-1.21-.59-2.05-1.38-2.27-2.74.03-1.06,1.52-2.18-.19-3.18-1.16-.68-1.64-1.88-1.33-3.06.24-.91-.55-1.23-.64-1.11-1.74,2.14-1.68-1.12-2.73-.88-.04.03-.08.06-.11.09.08.08.16.17.24.25-.9.1.94,2.62-1.46,1.56-1.17-.52-.87,1.34-1.72,1.61-1.73,2.39.37,5.15-.72,7.6h0c.54,1.6.34,3.59,2.46,4.34.27.1.35.67.52,1.02-.94.8-.95,2.16-.09,2.41,1.25.38.59-1.07.82-1.71,1.78-1.04,1.4-3.56,3.16-4.61ZM199.49,169.81c.19-.49.71-1.24,1.33-.75.22.17-.12,1.08-.24,1.69.02,0,.05,0,.07,0,.02.06.04.11.06.16.83.4,1.4.36,1.14-.9-.28-1.39.39-1.73,1.64-1.94.56-.09.94-.24,1.26.23.85,1.28-.54,1.61-1.06,2.22-2.1,2.43-2.19,2.46-2.97.38-.05-.02-.1-.05-.15-.07h0s.01-.06.02-.08c-.67.04-1.56.27-1.09-.94Z"/>
        <path class="cls-1" d="M126.22,130.33c-.4-.35-.88-.78-1.35-1.21-.29,1.25.35,1.55,1.35,1.21Z"/>
        <path class="cls-1" d="M204.92,160.58v-2.87c-1.16,1.06-.99,1.96-.57,2.86.03.08.33.01.57.01Z"/>
        <path class="cls-1" d="M134.57,125.2c1.7-2.59-1.11-1.29-1.48-1.34-1.78-.27-.31,1.47-.88,2.04.89-.35,2.32-.62,2.36-.7Z"/>
        <path class="cls-1" d="M195.56,177.64c.86,1.11,1.64,2.13,2.67,3.43q.58-4.2-2.67-3.43Z"/>
        <path class="cls-1" d="M191.16,77.88c-.93-.37-1.23-1.08-.89-1.97.56-1.45.43-3.03.93-4.49.13-.29.36-.49.65-.61,0-.01,0-.02,0-.03-.79-1.42-1.73-2.83-.62-4.36-.05-.02-.1-.03-.14-.05-.39.17-1.01-.88-.92-.23.62,4.89-1.7,9.48-1.27,14.31-.25,1.12-.17,2.25-.07,3.38-.55.63-.33.93.02,1.18,0,0,.01,0,.02,0,0,0,0,.02,0,.02.29.2.65.38.75.66.31-1.68.79-3.33,1.14-5,.06-.07.13-.13.2-.17,0-.05,0-.1,0-.15-.24-.3-.29-.65-.19-1.03.03-.07.07-.12.11-.18,0-.12-.02-.23-.03-.35.14-.07.29-.11.46-.14.44-.35.99-.55,1.47-.86-.51.18-1.05.19-1.63.06Z"/>
        <path class="cls-1" d="M188.3,89.69c-.4-.16-.83-.44-.93.43-.08.7-.78,1.49.18,2.06.13.08.41-.4.58-.65.08-.06.17-.1.25-.15.03-.08.06-.16.1-.22-.49-.41-.47-.92-.19-1.46Z"/>
        <path class="cls-1" d="M189.19,58.45s0-.05,0-.08c0,0-.08.09-.08.09.03,0,.05-.01.07-.02Z"/>
        <path class="cls-1" d="M121.89,132.47c0-.08-.01-.17-.05-.28-.05.09-.02.18.05.28Z"/>
        <path class="cls-1" d="M103.14,170.41c-.55.03-.77.61-.56.86.74.89,2.24.23,2.99,1.24-.45-1.25-1.07-2.18-2.43-2.1Z"/>
        <path class="cls-1" d="M114.03,163.39c.43.29.55-.38.64-.93.01-1.12-1.22-.99-1.89-1.46-.08-.05-.42.29-.64.44.62.67,1.15,1.46,1.89,1.96Z"/>
        <path class="cls-1" d="M113.9,132.51c-1.18-.25-2.29-.58-2.94,1.01,1.07,0,2.14.49,2.94-1.01Z"/>
        <path class="cls-1" d="M106.48,170.6c.02-1.01,1.96-1.16,1.15-2.54l.05.05.02.02v-.08s-.03,0-.05-.01c-.73-.95-2.21-.47-2.9-1.48-1.16,2.05.31,3.03,1.73,4.03Z"/>
        <path class="cls-1" d="M109.52,170.61c-1.79-.54-1.47.99-1.15,1.54.55.9,1.31.18,1.88-.32h.22s.21-.04.21-.04c.92.9,2.17,1.07,2.65-.05.34-.81-.92-1.27-1.85-1.39.03-.18.01-.37-.09-.54-.06-.63.61-1.69-.39-1.77-1.24-.11-1.07.93-.82,1.79.05.51-.27.68-.68.78Z"/>
        <path class="cls-1" d="M104.75,166.57s.03-.06.05-.1c-.03.02-.06.03-.1.04h.01s.02.04.03.05Z"/>
        <path class="cls-1" d="M108.61,156.06c-.18-.13-.34.54-.11.9,1.49,2.32,2.75-.95,4.46.38-1.25-4.12-3.03-.32-4.35-1.28Z"/>
        <path class="cls-1" d="M110.45,165.87c.06-1.64.33-3.86-1.93-4.63-1.11,1.2,1.02,2.47.41,2.75-2.21,1-1.25,2.61-1.21,4.07,1.69.24,2.7-1.28,2.74-2.19Z"/>
        <path class="cls-1" d="M101.18,123.12c-.82.81-1.34,1.31-2.12,2.07,1.71.17,2.12-.46,2.12-2.07Z"/>
        <path class="cls-1" d="M71.99,133.76c.19.08.32.18.43.31,2-.12,1.27,1.28,1.02,2.4l-.28.14h-.03c.37.13.84.21.36.74-1.44,1.6-2.25,3.3-2.32,5.55-.04,1,.21,1.47.85,1.44,1.5-.06,2.82.54,4.2.83.34.08.7.58.83-.12.06-.37-.13-.77-.23-1.16-.13-.52-2.37.68-.92-1.12.62-.78,1.45-1.44,2.4-.63.86.73,1.74,1.65,2.41.15.62-1.43,1.74-1.38,2.46-.85,1.1.82-.96,1.28-.66,2.2,2.63-.05,6.28-2.3,6.92-4.23-1.06-.38-1.72.43-2.49.89-.03-.02-.06-.03-.1-.03-2.22-1.29-.52-2.28.44-3.11,1.14-1,3.41-.98,2.8-3.43-.02-.08.28-.72,1.05-.2,2.56,1.7,4.34.3,5.65-1.95.26-.44-.21-1.18.96-.64,3.12,1.43,4.05.73,3.32-2.67-.17-.81.82-1.55-.09-2.17-.86.63-2.28.64-2.32,2.2-.01.6-.46.99-1.07.6-.38-.24-.35-.95-.46-1.13-.88-1.41,1.27-2.79-.18-4.19-.53.77-1.03,1.52-1.72,2.55-.69-4.81-3.71-.23-5.16-1.87.85,1.45-.08,3.56,1.87,4.45.09.04-.55,1.85-.99,2.76-.12.27-.92.39-.98-.14-.32-3.11-1.95-.84-3.04-.78-1.43.05-2.79,3.34-4.34.12,0-.01-1.01.28-.7.93.28.58,1.3.82.75,1.81-1.58-.57-3.11-1.69-4.83-.47.02-.52-.04-1.06.11-1.55.13-.43.81-.84.19-1.24-.34-.24-1.3-.24-1.41-.03-1.03,1.96-3.71,1.73-4.73,3.64ZM86.27,140.23c.13-.03.25-.03.38-.02-.08,0-.16.03-.24.04.23.07.45.18.66.37,0,0,.01,0,.02-.01,0,0,0,.03,0,.03,0,0-.01,0-.02-.02-1.04.75-2.02.96-3.37-1.08,1.06.65,1.88.53,2.57.68Z"/>
        <path class="cls-1" d="M62.3,138.34c-.55.87-1.1,1.75-1.64,2.62.25.18.49.35.73.53.32-1.05,1.9-1.07,1.61-2.59-.04-.21-.45-.38-.7-.56Z"/>
        <path class="cls-1" d="M107.19,126.38c-.54.83-.47,2.06-.61,3.13-.01.04.74.32,1.07.25,1.33-.34,1.41-1.2.86-2.31-.03-.08.37-.37.59-.57-.68-.19-1.24-1.52-1.91-.49Z"/>
        <path class="cls-1" d="M113.09,123.72c-1.44.61-3.85.68-3.9,3.18h-.01s-.04-.06-.04-.06l-.03.03s.03.01.04.01c.57,1.7,1.6,2.87,3.5,2.17.59-.23,2.35.18,1.74-2.03-.35-1.26-.7-3.56-1.3-3.3Z"/>
        <path class="cls-1" d="M69.01,79.98v4.33c1.01-1.88.44-3.11,0-4.33Z"/>
        <path class="cls-1" d="M258.96,164.13c-2.06.16-1.81,2.04-2.32,3.3-.16.41.7,1.1.79.85.59-1.43,2.88-1.38,2.78-3.3.05-.98-.64-.89-1.26-.85Z"/>
        <path class="cls-1" d="M104.71,166.51c-1.26-.55-1.25-2.79-3.17-2.45.76,1.2.35,4,3.17,2.45Z"/>
        <path class="cls-1" d="M64.24,85.26c.43.08.87-.05.8-.66-.04-.29-.13-.63-.68-.54-.41-.04-.71.31-.84.7-.26.76.46.45.72.49Z"/>
        <path class="cls-1" d="M59.49,91.46c.3.24.6.64.89.64.32,0,.64-.4,1.15-.74-.66-.35-1-.7-1.31-.67-.27.03-.48.49-.73.76Z"/>
        <path class="cls-1" d="M69.11,94.62c2.53,1.16,1.03,2.67.4,4.07-.85,1.89.39,2.75,2.11,3.89-.88-1.77-.99-3.19.06-4.51,1.77-2.21-1.16-2.86-1.54-4.37-.02-.1-.63-.17-.87-.06-.44.2-.55.82-.16.99Z"/>
        <path class="cls-1" d="M114.84,171.92c-.04.1.11.4.24.47,1.14.63,1.06-1.16,1.91-1.06-.97-.41-1.69-.23-2.15.59Z"/>
        <path class="cls-1" d="M252.58,170.57c-1.12-.91-2.31-.97-3.58-.43.19,1.11,1.49.77,1.85,1.59-.06.78-.13,1.57-.18,2.35-.02.47.21.81.69.74.57-.07.61-.47.58-.88-.96-.43-.93-.82-.58-1.2.09-.19.26-.39.41-.58.09,0,.17-.01.27-.02.02,0,.04-.02.07-.03.01,0,.02-.02.03-.02.21-.2.42-.39.63-.59.41-.08.91-.22,1.13.24.42.91-.56.85-.95,1.21.65.14,1.33.75,1.92-.46.47-.96.27-1.52-.23-2.19-.84-1.14-1.38.1-2.05.27Z"/>
        <path class="cls-1" d="M116.61,164.16c-.2-.13-.87.03-.87.05,0,.9.03,1.81,1.17,3,.12-1.43.89-2.28-.3-3.05Z"/>
        <path class="cls-1" d="M246.13,198.42c.62-1.48-1.91-1.45-1.4-2.72,1.01-2.51-.34-4.32-1.57-6.21-.96-4.3-1-9.06-5.82-11.36-.1.12-.19.24-.28.35.14-.04.29-.07.44-.1-.02.85-.05,1.71-.07,2.56-1.51.34-1.55-1.09-1.77-1.8-.31-1.03.79-.02,1.13-.37.02-.16.06-.32.13-.5.18.06.32-.02.44-.24l-.02.09c.8-1.16,1.42-2.37,1.28-3.85,1.15-.56,2.33-.15,3.47.02,1.27.18,1.78-.7,1.98-1.52.22-.89-.92-.74-1.4-1.11-2.05-1.62-3.46,1.26-5.31.61-.96.08-.04-2.78-1.94-1.25-.76.45-1.96-.67-2.47.68,0,0,0,0,0,0l-.09-.03c.04.05.08.11.13.16,0,0,0,0,0,0,0,0,0,0,0,0h0s0,0,0,0c.05.06.1.11.16.16.7-.03,1.2.45,1.76.77.18,2.05-2.05,1.86-2.59,3.35-1.4-1.94.15-2.9.68-4.11.01,0,.03,0,.04,0-.02-.06-.04-.11-.05-.17l-.13-.16.1.03c-1.47-.97-3.3,1.63-4.65-.39-.27.72-1.17,1.64.68,1.67,1.03.02.72.82.69,1.39-.03.57-.45.32-.63.16-2.87-2.58.22,1.81-1.12.99-1.03-.04-1.16-1.17-1.22-1.57-.27-1.69-1.27.05-1.84-.53-.98-.98-1.09-3.31-.43-4.61.24-.47,1.44-2.26-.81-2.46-.35-.03-.37-.92-.09-1.42.3-.51.95-1.06-.08-1.42-.59-.2-.95.42-1.23.82-.82,1.16-.78,1.19-1.4.32-.28-.38-.85-.31-1.28.17-.89-.37-1.71.2-1.76.81-.17,1.71-.89,2.55-2.89,2.5,1.11-1.47,2.17-2.89,1.06-4.8-1.18.62-2.2,1.16-3.76,1.98,1.91.48,2.8,1.33,2.06,2.88-2.32.08-3.58-.64-2.57-3.23.09-.21-.06-.8.11-1.26.3-.75-.28-.89-.84-.86-.46.01-1.4-.15-1.3.27.48,2.22.18,4.19-.62,6.35-.42,1.15,1.69.3,2.46,1.02,2.4,2.19,2.42,2.16,5.19,1.23.29-.1.62-.09.94-.13.66-.29,1.31-.55,1.89.15.24.63-.61,2.54,1.34,1.14,2.03-.77,2.12,1.07,2.92,2.07.77.96,1.79,2.03,1.82,2.5-1.09-.17-2.08-1.1-3.09-.53.6,3.02,2.2,5.62,3.34,8.41.89,2.2.37,5.62,4.38,5.76-1.78.14-2.18,1.18-1.58,2.46,1.35,2.86,1.87,5.95,2.47,8.98,1.3,6.6,4,12.95,3.69,19.85-.21,4.49-.45,8.98-.67,13.47,0,.02,0,.03,0,.05-.16.56-.3,1.11-.3,1.61,0,.01,0,.03,0,.04-1.55,8.58-2.91,17.17-5.45,25.53-.03.09-.05.16-.08.25-.42,1.24-.82,2.48-1.23,3.71-.61,1.57-1.11,3.19-1.88,4.67-.91,1.75-1.33,3.55-1.22,5.49.09.1.17.17.25.25.04.02.1.05.14.09.2.03.38.03.55,0,.04,0,.08-.01.11-.02.47-.1.83-.39,1.12-.81-.28-1.03-.14-2,.54-2.89.31-.14.51-.39.7-.68.01-.03.03-.07.04-.1.34-.43.53-1.05.95-1.4,0,.08,0,.15,0,.22.23-.13.5-.2.88-.15-.05,1.09.38,1.95.99,2.87.75,1.13-.25,1.1-1.02,1.04-.13-.86-.39-1.66-1.1-.37-.35.63-.47,1.37-1.16,1.77,0,0,0,0,0,0-.5.81.28,3.04-2.08,1.84-.4-.2-.97-.73-.78-1.33.09.02.17.02.25.03-.04-.04-.08-.06-.12-.11,0,0,0,0,0,0-.07-.07-.16-.15-.24-.24h-.01s.01.04.01.08h0s0,0,0,0c-2.97.74-3.3,3.52-3.58,5.65-.23,1.77-.83,2.89-2.04,3.79-3.08,2.3-5.49,5.2-7.73,8.26-4.38,4.61-8.24,9.77-13.61,13.36-1.44.96-2.37,2.04-1.69,3.86.03-.01.05-.03.09-.04.21-.22.44-.42.67-.62,1.58-2.27,4.1-3.19,6.55-4.21.11-.08.22-.15.33-.24.08-.07.16-.12.24-.19.43-1.76,2.25-1.86,3.56-2.56.06-.05.12-.09.17-.13,0-1.83,1.92-2.37,2.55-3.77.2-.38.41-.76.62-1.14,0-.07,0-.13-.01-.21.08.05.16.09.24.12.72-.03,1.44-.07,2.17-.1-.58-1.79-.25-3.03,1.82-3.21.03-.02.05-.04.09-.06.06-.09.13-.17.2-.25.04-.04.09-.09.14-.13.02-.02.04-.05.08-.08,0,0,0,.01-.01.02-.02.02-.04.04-.06.06-.05.04-.1.09-.14.13-.07.07-.14.16-.2.24,0,0,0,0,0,0-.01.02-.02.03-.03.05.04,0,.06-.01.1-.01.35-.19.66-.14.93.14-1.3.88-.16,2.76-1.48,3.64-2.62-.44-2.4,2.94-4.43,3.3-.55.31-.21,1.38-1.15,1.35-.92,1.66-1.47,3.7-3.89,3.86.22,2.69-2.58,2.48-3.78,3.84-1.43,1.62-3.03,2.99-2.56,5.38-1.53-.04-.17-2.55-1.38-1.66-.83.61-2.74,1.68-2.01,3.57,0-.03.02-.05.03-.08,1.1.04.23,1.32.96,1.62.85-1.68.85-1.67,2.36-1.36.12.02.31-.35.48-.54.51-.53,1.01-1.06,1.55-1.63,1.48,1.34-.88,4.22,2.16,4.81.35-1.15-.74-2.42.04-3.78,1.06.85,1.75,3.4,2.04,2.59,1.22-3.36,2.5-.87,3.85-.53.96.24,1.68-.34,1.75-1.33.09-.97.47-.83,1.31-1.04,4.3-1.06,6.56-4.71,9.12-7.9.18-.23-.24-1.04-.52-1.49-.27-.44-.46,2.01-.96.09-.15-.6.34-1.28.81-.97,2.28,1.48,2.86-.43,4.01-1.67,3.9-4.14,8.01-8.12,7.57-14.48-.25-.66-.03-1.9-1.59-.99-.73.42-.33-.67-.61-.97.21-.42-.19-1.2.71-1.22-.12.97.39,1.11,1.26,1.26,1.45.26,1.19.92.73,1.59.85-.2,2.03.06,1.93-.6-.4-2.63,2.13-3.39,2.86-5.25,2.54-6.46,5-12.94,6.92-19.6.23-.77,1.67-2.34-.87-2.87-.81-.17.4-.91,1.02-1.1,1.63-.82,1.62-2.19,1.27-3.69,1.14-1.32.7-2.83.03-3.99-.68-1.16-1.7-.26-2.88,1.19.62-2.25,1-3.57,1.43-5.13.9.85-.7,1.91.85,2.21.74.14,1.63,1.2,2.14.13.74-1.57,1.3-4.87.69-4.85-3.65.09.38-2.5-1.3-2.68,1-1.14,1.27,2.74,2.06.17.82-2.67,1.16-5.49,1.53-8.27.26-2-.17-4.07.63-6.02.02-.12.04-.24.05-.35,1.44-8.37.29-16.55-2.01-24.63-.06-2.69-1.71-4.95-2.04-7.58ZM222.8,170.06c-.84,1.19-.47-.75-.97-.42-1.28.84-2.54,1.66-4.07.58-.23.4-.45.79-.68,1.19-.38-.04-1.08.2-1.03-.29.07-.69.55-1.33.85-1.99.36.26.18,1.01.84,1,.38-1.57,2.9-2.17,1.96-4.33,1.36.68.89,2.98,2.82,3.21.15.02.42.86.28,1.06ZM230.07,175.94c.8,1.06,1.47,2.02-.66,2.55.24-.92.44-1.7.66-2.55ZM226.89,177.72c1.17-.05,1.41,1.09,2.54,1.6q-1.84.1-2.54-1.6ZM230.64,182.02c-.79-.5-1.02-1.26-.63-2.2.68.43,1.47.75,1.5,1.65,0,.18-.73.64-.87.55ZM202.6,311.21c1.69.2,1.07,1.66,1.77,2.29-1.22-.26-1.31-1.23-1.77-2.29ZM210.04,317.3c-.27.51-.81.35-1.28.21.01.03.02.05.03.08,0,0,0,0,0,0-.03,0-.07,0-.1,0,.04.44,1.1.76.22,1.25-.37.21-1.13.27-1.28-.35-.22-.89.5-.85,1.06-.91,0-.04-.01-.07,0-.11.02,0,.04.01.07.02-.23-.56-.53-1.11-.07-1.71-1.33-.96.27-1.55.36-2.33.05-.45.43.11.62.24,1.2.83-.04,1.37-.27,2.04.17.55.99.9.64,1.57ZM210.46,307.07c1.11.24,1.86.41,2.61.57-.85.4-1.74,1.01-2.61-.57ZM217.44,303.66c-.33-.41-.68-.75-.9-1.16-.12-.23.17-.75.33-.55.37.45,1.31.11,1.29.92,0,.23-.39.45-.72.79ZM220.63,292.19c-.63.26-1.42.16-2.13.22.06.7.2,1.42-.65,1.78-.7-.24-1.39-.48-2.09-.72.12-1.56,1.5-1.59,2.5-2.09.02-.02.04-.04.05-.05-.44-.46-1.31-1.21-.7-1.54,2.28-1.24,3.22-3.31,4.18-5.5.26-.6.91-1.03,1.53-1.49.05-.15.11-.28.15-.43,0,.12,0,.21,0,.32.12-.09.24-.18.35-.28.72.99.35,1.93.33,2.83-.72.69-.51,1.61-.61,2.45h0c1.38-.04,1.38,1.03,1.69,1.95-1.02.11-1.39-.5-1.75-1.14-.67.24-1.35-.88-1.88-.16-.38.52.43.96.63,1.38.6,1.29-.53,2.05-1.57,2.49ZM225.11,302.5c.55-3.02-2.12.34-2.16-1.44-.03.01-.06.04-.09.04,0,0,0,0,0,0-.01-.03-.01-.07-.02-.1-.75-.03-1.42-.27-1.65-1.06-.04-.14.58-.69.88-.68,1.34.06.61,1.1.76,1.74.04,0,.07.01.11.01,0,.02,0,.02,0,.04.83-.31.58-2.04,1.69-1.61,1.17.45.9,1.7.47,3.05ZM223.33,290.82c4.39-.84,2.97,3.66,4.9,5.06-3.07-.37-2.73-3.77-4.9-5.06ZM230.52,265.55c.23.22.46.45.7.67.08.83-.3,1.38-1.08,1.71-.41-.88.33-1.58.38-2.38ZM229.17,270.82c0-.72,0-1.43,0-2.15.72-.5,1.06.11,1.49.46.02,0,.03,0,.05,0,0,.02.01.04.02.06.11.07.22.14.34.15.41.36.81.72,1.26,1.11-1.02.62-2.22-.58-3.15.37ZM231.75,262.49c-1.05-1.36.65-1.8.91-2.72.29.04.59.08.88.12.15,1.38-.68,2.09-1.79,2.6ZM237.02,191.27c1.06.45,1.33,1.16.81,2.47-.27-.98-1.24-1.39-.81-2.47ZM234.19,176.54c.2.02.7-.04.47.44-.23.46-.58.86-1.31.83-.09-.18-.31-.43-.3-.66.04-.75.64-.65,1.13-.61ZM232.6,178.62c.07-.13.44-.26.54-.19.91.57.42,1.41.42,3.13-.5-1.55-1.44-2-.96-2.93ZM234.31,188.55c-.52.03-.83-.45-.57-.79.7-.92.55-1.92-.15-3.72,1.86,1.65,1.08,2.99,1.38,4.07.02.09-.42.42-.65.44ZM235.67,275.24c-1.26.72-.48-1.02-1.18-1.05.05-.68.6-.41.91-.39.82.04,1.26.56,1.42,1.31-.29.93-.72-.11-1.15.14ZM236.61,272.92c-.57,0-.33-.56-.54-.81-.4-.46-.55-.86.31-.86.34,0,.92-.18.89.36-.03.45-.42.87-.65,1.31ZM235.81,259.72c-.16-.22-.3-.74-.19-.84,1.02-.97,1.54.5,3.08.47-1.43.25-2.01,1.58-2.89.37ZM241.23,188.57c-.2.21-.39.42-.59.63-1.37-.84-.52-1.61.07-2.38.72.42.58,1.1.51,1.75ZM241.99,246.41c-.14-.46.09-1.1-.63-1.26.71-1.31,1.34-.38,1.65.2.56,1.05-.2,1.16-1.01,1.06ZM246.23,243.87c-.66-.25-.52-.82-.47-1.3.05-.5.51-.73.86-.49.25.17.32.69.36,1.07.06.51-.28.71-.75.71Z"/>
        <path class="cls-1" d="M116.26,155.36c-.88-.33-1.93-.4-2.51.51-.47.73.39.95.83,1.28.3.38-1.16,1.05.23,1.27.33.05.86.42.94.33.58-.64-.45-1-.37-1.6.59-.23,1.6.49,1.74-.64.04-.35-.46-.99-.85-1.14Z"/>
        <path class="cls-1" d="M103.45,130.41c2.11.14.81-2.36,2.17-2.83-1.25.09-.48-1.62-1.12-1.52-1.36.21-1.54,1.44-1.69,2.58,1.25.41-1.21,1.64.63,1.76Z"/>
        <path class="cls-1" d="M104.13,155.36c-.53.33-.14.72.04,1.06.7,1.23,1.33.42,2.12-.38-.95.49-1.17-1.31-2.16-.69Z"/>
        <path class="cls-1" d="M95.14,237.71c.2-.04.33-.41.42-.52-.08-.77-.54-.68-.92-.61-.24.04-.63.3-.63.34.2.49.55.91,1.14.78Z"/>
        <path class="cls-1" d="M88.56,160.28c.31-1.54,2.4-1.83,2.63-3.98-1.56,1.23-2.65,2.19-2.63,3.98Z"/>
        <path class="cls-1" d="M93.1,156.47c-.09.84,1.41.68,1.4,1.67.91-.28,1.46-.89,1.62-1.45.16-1.13-.11-1.48-.94-1.48-.99.01-1.96.13-2.08,1.27Z"/>
        <path class="cls-1" d="M89.34,163.11c.44,1.15.35,2.74,2.45,2.92-.27-1.68-1.38-2.29-2.45-2.92Z"/>
        <path class="cls-1" d="M77.64,161.59c.68-1.25,1.3-2.41,2.11-3.88q-3.65.99-2.11,3.88Z"/>
        <path class="cls-1" d="M72.15,154.65c-.8.84-2.3-.48-2.47.86-.06.43.3,2.01,1.69,1.61,1.19.14,1.97-.6,2.18-1.47.2-.83-.98-1.44-1.4-1Z"/>
        <path class="cls-1" d="M79.64,145.71c.05-.58-.39-.63-.82-.67-.57-.03-1.09.05-1.03.8.02.31-.18.81.42.89.38-.53,1.36-.14,1.43-1.02Z"/>
        <path class="cls-1" d="M78.35,120.53c.1-.06,0-.62-.16-.84-.88-1.19-1.5.08-2.29.24.72.75,1.47,1.26,2.45.6Z"/>
        <path class="cls-1" d="M74.23,147.01c-.76-.09-2.13.24-2.11,1.31.03,1.83,2.02,1.24,3.22,1.95-.83-1.03.89-3.01-1.12-3.26Z"/>
        <path class="cls-1" d="M75.77,150.6c-.12-.14-.26-.25-.42-.33.1.13.24.24.42.33Z"/>
        <path class="cls-1" d="M72.8,136.31s0,.05.01.06c0-.02,0-.04-.01-.06Z"/>
        <path class="cls-1" d="M87.39,227.37c-.23,1.4,1.25,1.78,1.46,2.73.22-1.14-.65-1.81-1.46-2.73Z"/>
        <path class="cls-1" d="M86.03,172.36c1.49.11,3,.42,4.46.29,1.19-.1,2.11-.88,1.93-2.35-.04-.34.7-.78.19-.97-.82-.27-1.64-.54-2.3.71-.57,1.09-1.61.17-2.42-.2.52-.89.88-1.65.88-2.88-.01-1.83.01-2.18-1.84-3.02-2.58-1.17-1.55,1.01-1.47,1.62.16,1.21-1.06,1.01-1.39,1.76-.72,1.67-.84,1.64.68,2.5.14.13.28.24.43.34.74,0,1.49,0,2.23,0-.09.89-.38,1.65-1.26,2.05-1.14.17-.86-.92-1.26-1.41,0-.06,0-.13,0-.19-.04-.05-.09-.1-.13-.14-.63,1.33-.35,2.05,1.26,1.88Z"/>
        <path class="cls-1" d="M93.06,232.06c.27-.11.54-.25.82-.31.58-.14.74,2.04,1.52.35.26-.57.31-2.01-1.39-1.49-.36.11-.97-.57-1.61-.34,0,0,0,0,0,0-.01,0-.02.01-.03.01,0,0,0,0,0,0,0,0,.01,0,.02,0,0,0,0,0,0,0,0,0,0,0,0-.02h0c1.09-.76,1.86-1.66.61-2.84-1.47-1.4-.78-5.09-4.43-4.18.02.08.02.17.03.26.04.02.07.05.11.07.82.36,1.43.82,1.89,1.36.09.08.16.16.2.25,1.12,1.5,1.25,3.52,1.5,5.46.02,1.57-1.08,2.08-2.32,2.45-.05,0-.1,0-.15,0l-.02.29c-2.14.09-1.05,1.36-.58,2,.46.64,1.75,1.62,2.1,1.01.43-.76.63-2.36-.9-2.99,1.34.46,1.34-1.68,2.61-1.33ZM92.4,230.19h0s-.04.06-.06.09c0,0,0,0,0,0,.02-.03.04-.06.06-.1Z"/>
        <path class="cls-1" d="M82.36,120.93v3.3c1.31-1.3,1.7-2.22,0-3.3Z"/>
        <path class="cls-1" d="M80.56,120.29c-1.18-.1-.89.86-1.18,1.29-.35.55.26,1.29.69,1.36.69.12.99-.54.87-1.21-.09-.52.35-1.27-.38-1.44Z"/>
        <path class="cls-1" d="M86.04,157.7c-1.98.25-3.57.49-3.99,2.56-.52.81.28,1.26.51,1.87,1-.44.31-1.19.34-1.82.89-.88,2.31-1.14,3.14-2.61Z"/>
        <path class="cls-1" d="M91.48,139.02c2.32.58,3.51-.6,4.75-2.06-2.04-.4-3.43.33-4.75,2.06Z"/>
        <path class="cls-1" d="M102.53,161.17c-1.12-.56-1.44.34-1.92.78-2.25,2.03-2.29,2.06-3.14-.98-.47-1.71-1.57.34-2.47-.53-.6-.58-.97,1.04-1.21,1.65-.32.84,1.15,1.02,1.19,1,1.99-1.3.84,1.49,1.85,1.4-1.31,2.5.51,3.23,2.24,4.09.33.16.97.47.63,1.15,0,0-.03.02-.06.03l-.05.02s.06-.01.1-.01c-.15.52-1.38.71-.39,1.57.77.68.92-.37,1.43-.42-.16-.56-.28-1.15-.99-1.15,1.36-.13,2.9.68,4.3-.62-3.17-.67-4.04-2.55-2.57-5.09.03-.01.05-.01.09-.01-.01-.02-.03-.04-.04-.06l-.09.09c-1.1-1.44,1.29-1.78,1.12-2.91Z"/>
        <path class="cls-1" d="M83.95,163.67c-.3-.28-.58-.74-.92-.8-1.28-.18-.63,1.23-.94,1.99.62-.4,1.25-.8,1.86-1.19Z"/>
        <path class="cls-1" d="M119.8,135.18c.56.8,1.47-.81,2.43-1.1,1.52-.45.04-1.12-.33-1.61-.05,1.15-3.7.45-2.1,2.71Z"/>
      </g>
    </g>
  </g>
</svg>