<svg width="236" height="84" viewBox="0 0 236 84" fill="none" xmlns="http://www.w3.org/2000/svg">
<g clip-path="url(#clip0_343_499)">
<path d="M85.1739 34.1438C85.1739 34.1438 84.0347 34.5807 83.5761 34.862C81.2163 36.3206 79.4927 38.105 79.0119 41.696C78.5237 38.105 76.8001 36.3206 74.4477 34.862C73.989 34.5807 72.8424 34.1438 72.8424 34.1438C72.8424 34.1438 73.989 33.707 74.4477 33.4256C76.8001 31.967 78.5237 30.1826 79.0119 26.5916C79.4927 30.1826 81.2163 31.967 83.5761 33.4256C84.0347 33.707 85.1739 34.1438 85.1739 34.1438Z" fill="url(#paint0_radial_343_499)"/>
<path d="M76.5781 78.0724L76.6965 51.0918C76.6965 49.8701 76.3858 48.9076 75.757 48.1968C75.1356 47.486 74.4107 46.8863 73.5674 46.405L82.8585 44.8798L82.7846 78.0724C82.7846 79.2718 83.0953 80.227 83.7166 80.9526C84.338 81.6782 85.0556 82.2705 85.8693 82.7221H73.4564C74.2923 82.2705 75.0247 81.6782 75.6461 80.9526C76.2674 80.227 76.5781 79.2718 76.5781 78.0724Z" fill="url(#paint1_radial_343_499)"/>
<path d="M101.441 3.03918C101.441 3.9869 100.679 4.74952 99.7321 4.74952C98.7852 4.74952 98.0233 3.9869 98.0233 3.03918C98.0233 2.09145 98.7926 1.33623 99.7321 1.33623C100.672 1.33623 101.441 2.09885 101.441 3.03918Z" fill="url(#paint2_radial_343_499)"/>
<path d="M91.7577 5.67504C91.447 5.67504 87.445 7.46683 83.0213 9.68066C78.5902 11.9019 74.5882 13.6937 74.063 13.5826C73.5378 13.479 72.7981 12.7386 72.0583 11.1615C70.4827 7.99993 69.4248 7.15586 67.324 7.46683C66.3697 7.57789 65.2157 7.78521 64.8976 7.99993C64.2688 8.20724 64.1579 7.99993 64.1579 6.83748C64.1579 5.99341 63.7362 4.83097 63.211 4.20162C62.5822 3.46121 61.7389 3.03918 60.6811 3.03918C58.8169 3.10581 56.4497 4.5274 54.2601 6.94854C53.5648 7.25952 52.7584 7.64453 51.8338 8.10358C49.3038 9.36968 46.1451 10.8431 44.9837 11.3688C42.2467 12.4276 37.6085 13.3753 36.8688 13.0569C36.4471 12.9533 36.24 12.1092 36.24 9.89538C36.24 6.83748 35.5002 4.83097 34.3462 4.30528C32.238 3.56487 28.5467 4.52 25.4915 6.62276L23.5978 7.88886L23.7014 5.14935C23.8049 0.82535 22.1257 -0.337094 18.1163 1.66942C15.6973 2.83186 11.2737 7.0448 8.74376 10.3174C7.68593 11.7908 6.73906 12.9533 6.6355 12.9533C6.21385 12.9533 7.68593 8.10358 8.84733 5.46772C9.37255 4.09796 9.48351 3.35755 9.16542 2.83186C8.21855 1.04007 6.31741 1.4621 5.16341 3.77959C3.26227 7.36317 1.99731 13.3753 2.63349 15.6928C2.73706 16.3221 3.26227 16.9589 3.79489 17.1662C4.6308 17.5216 5.54808 17.3809 6.53193 16.7442C7.27168 16.3221 8.84733 14.7451 9.90516 13.2716C12.9603 9.36969 16.5406 5.67504 18.538 4.52L20.2246 3.56487L20.0174 5.14935C19.5958 7.57789 19.5958 10.1027 19.9065 11.1615C20.4391 12.8496 22.3328 12.4276 25.7061 9.89538C28.6576 7.57789 31.6018 6.31179 32.4451 6.83748C32.7632 7.0448 32.8668 7.99993 32.6596 9.36968C32.238 13.479 34.0282 16.3221 37.1869 16.3221C39.4505 16.3221 45.5386 14.212 51.1236 11.4576C51.0126 11.6724 50.8943 11.8871 50.7833 12.1092C49.0967 15.4855 48.9931 17.1662 50.1471 18.3287C51.8338 20.0168 53.7275 19.2764 61.5244 13.901C67.213 10.1027 68.0563 9.99903 69.2177 12.5312C71.1114 16.9589 73.0126 17.803 76.8001 16.2185C79.9662 14.8487 90.8108 9.05131 91.6541 8.3109C92.601 7.46683 92.7119 5.67504 91.7577 5.67504ZM59.1054 11.5835C57.5224 12.6349 55.8358 13.6937 55.3105 14.0047C54.0456 14.8487 54.1492 14.323 55.7322 11.9019C57.1007 9.68066 59.6306 7.36317 60.4739 7.36317C60.792 7.36317 61.3173 7.88886 61.5244 8.62927C61.946 9.79172 61.8425 9.89538 59.1054 11.5835Z" fill="url(#paint3_radial_343_499)"/>
<path d="M71.2076 82.9443C70.3569 82.4852 69.6319 81.8929 69.018 81.1599C68.404 80.4343 68.1007 79.4643 68.1007 78.2649V63.5973C68.1007 60.5024 67.6272 57.8518 66.6952 55.6527C65.7631 53.4537 64.5351 51.6545 63.0186 50.2625C61.4948 48.8632 59.7786 47.8414 57.8774 47.1898C55.9689 46.5383 54.0604 46.2125 52.1444 46.2125C50.4282 46.2125 48.8082 46.3902 47.2695 46.7456C45.7383 47.1084 44.4067 47.6267 43.2823 48.3005C42.1579 48.9816 41.2628 49.8109 40.597 50.7956C39.9313 51.7804 39.5984 52.9132 39.5984 54.1941C39.5984 55.3714 39.8055 56.4154 40.2124 57.3261C40.6192 58.2294 41.1888 59.029 41.9212 59.7028C42.6461 60.384 43.519 60.9393 44.5251 61.3761C45.5385 61.8055 46.6333 62.1387 47.8095 62.3683C46.2709 62.6052 44.8802 62.9754 43.63 63.4863C42.3724 63.9972 41.2998 64.6709 40.4047 65.5002C39.5096 66.3295 38.8217 67.3364 38.3334 68.5137C37.8452 69.6909 37.6085 71.0755 37.6085 72.66C37.6085 74.5554 37.9266 76.1991 38.5628 77.5911C39.2063 78.9905 40.057 80.1381 41.1149 81.0488C42.1727 81.9595 43.3859 82.6259 44.7396 83.0627C46.0933 83.4996 47.4988 83.7143 48.9561 83.7143C50.5466 83.7143 52.0261 83.4848 53.4094 83.0257C54.7853 82.5667 56.0281 81.9077 57.1303 81.0636C58.2251 80.2195 59.172 79.1978 59.9635 77.9983C60.755 76.7914 61.3838 75.4365 61.8424 73.9261V82.9443H71.2076ZM47.7504 61.5686C46.3596 61.2576 45.1169 60.7912 44.0295 60.1618C42.942 59.5399 42.0617 58.7328 41.3812 57.7481C40.708 56.7633 40.3677 55.5787 40.3677 54.1941C40.3677 53.1205 40.6414 52.158 41.1888 51.3139C41.7436 50.4699 42.4908 49.7443 43.4377 49.1445C44.3845 48.5448 45.4646 48.0857 46.6925 47.7674C47.9205 47.4416 49.2298 47.2861 50.6058 47.2861C52.5291 47.2861 54.1639 47.7007 55.5177 48.53C56.8714 49.3667 57.9884 50.4699 58.8761 51.8544C59.7564 53.2316 60.4295 54.8087 60.903 56.5782C61.3764 58.3404 61.6649 60.1544 61.7685 62.0277H52.0261C50.5688 62.0277 49.1411 61.8722 47.7504 61.5686ZM61.5761 71.0681C61.3986 72.075 61.1323 73.0746 60.7698 74.0593C60.4147 75.0441 59.9635 75.9918 59.4309 76.9025C58.8909 77.8132 58.2621 78.6055 57.5519 79.2792C56.8344 79.9604 56.0355 80.5009 55.1552 80.9155C54.2675 81.3228 53.291 81.5301 52.2184 81.5301C51.0644 81.5301 49.9992 81.3154 49.0153 80.8933C48.0315 80.4713 47.1808 79.8419 46.4632 78.9905C45.7531 78.1464 45.1835 77.1098 44.7766 75.8807C44.3697 74.6591 44.1626 73.2375 44.1626 71.6234C44.1626 70.2906 44.3845 69.0986 44.8136 68.0324C45.25 66.9736 45.827 66.0629 46.5446 65.3077C47.2547 64.5525 48.0537 63.9601 48.9413 63.5233C49.8216 63.0865 50.7241 62.8421 51.6414 62.7903H61.8055L61.8424 68.1657C61.8424 69.0912 61.7537 70.0537 61.5761 71.0681Z" fill="url(#paint4_radial_343_499)"/>
<path d="M39.5244 45.4129C39.5244 42.2883 39.014 39.6377 38.0006 37.4683C36.9797 35.2915 35.552 33.5441 33.7175 32.2113C31.8755 30.8712 29.6711 29.9087 27.1116 29.3089C24.5447 28.7166 21.7114 28.413 18.6193 28.413H0.0739742C0.480833 28.6426 0.865499 28.9091 1.23537 29.1979C1.60524 29.4866 1.93073 29.8198 2.22662 30.19C2.51512 30.5602 2.74444 30.9749 2.90719 31.4487C3.07733 31.9152 3.1587 32.4557 3.1587 33.0628L3.08473 78.0724C3.08473 78.6869 2.99596 79.2274 2.83321 79.6939C2.67047 80.1677 2.44115 80.5824 2.15265 80.9526C1.85675 81.3228 1.52387 81.6485 1.1614 81.9447C0.791524 82.2335 0.406858 82.4926 0 82.7221H12.8715C12.0282 82.2409 11.3033 81.6411 10.6819 80.9303C10.0531 80.2195 9.74241 79.2718 9.74241 78.0724V51.7804C10.201 53.1724 10.8668 54.4459 11.7471 55.5861C12.62 56.7337 13.6704 57.7111 14.9058 58.5255C16.1338 59.34 17.5541 59.9693 19.1519 60.4136C20.7498 60.8578 22.5104 61.0799 24.4411 61.0799C26.3718 61.0799 28.199 60.7468 30.004 60.0878C31.8015 59.4288 33.4068 58.4441 34.8197 57.1336C36.2252 55.823 37.3644 54.1941 38.2299 52.232C39.088 50.2774 39.5244 48.0043 39.5244 45.4129ZM32.5561 44.5392C32.5265 46.9011 32.238 49.0113 31.6758 50.8623C31.121 52.7207 30.3368 54.2904 29.3382 55.5713C28.3321 56.8522 27.1411 57.8221 25.7578 58.4885C24.3745 59.1475 22.858 59.4733 21.2084 59.4733C19.9139 59.4733 18.5823 59.1993 17.2286 58.6366C15.8675 58.0813 14.6395 57.2298 13.5373 56.0822C12.4277 54.9419 11.5252 53.4907 10.8076 51.7212C10.0975 49.9516 9.74241 47.8636 9.74241 45.4499L9.82378 29.2127H18.6193C20.9051 29.2127 22.9098 29.5977 24.6334 30.3603C26.357 31.1229 27.8143 32.1743 28.9905 33.5219C30.1741 34.8694 31.0618 36.4613 31.661 38.3049C32.2528 40.1485 32.5561 42.1625 32.5561 44.3467V44.5392Z" fill="url(#paint5_radial_343_499)"/>
<path d="M92.1497 78.0724V33.0628C92.1497 32.4039 92.0757 31.8411 91.9204 31.3895C91.765 30.9304 91.5505 30.5232 91.2768 30.1678C90.9957 29.8124 90.6628 29.494 90.2855 29.2127C89.9009 28.9387 89.4866 28.6722 89.028 28.413L98.3561 26.8508V78.0724C98.3561 79.294 98.6594 80.2566 99.266 80.9748C99.88 81.6856 100.605 82.2631 101.441 82.7221H89.028C89.8639 82.2631 90.5962 81.6856 91.2176 80.9748C91.839 80.2566 92.1497 79.294 92.1497 78.0724Z" fill="url(#paint6_radial_343_499)"/>
<path d="M107.721 78.0724V33.0628C107.721 32.4039 107.647 31.8411 107.492 31.3895C107.344 30.9304 107.122 30.5232 106.848 30.1678C106.567 29.8124 106.234 29.494 105.857 29.2127C105.472 28.9387 105.058 28.6722 104.6 28.413L113.928 26.8508V78.0724C113.928 79.294 114.231 80.2566 114.845 80.9748C115.452 81.6856 116.177 82.2631 117.012 82.7221H104.6C105.435 82.2631 106.168 81.6856 106.789 80.9748C107.411 80.2566 107.721 79.294 107.721 78.0724Z" fill="url(#paint7_radial_343_499)"/>
<path d="M152.061 68.5877C151.647 67.5437 151.063 66.6404 150.308 65.8778C149.561 65.1152 148.666 64.4858 147.63 63.975C146.587 63.4641 145.433 63.0568 144.161 62.7533H152.121C152.121 59.8287 151.721 57.3335 150.922 55.2677C150.123 53.1946 149.051 51.4916 147.704 50.1589C146.358 48.8262 144.79 47.8488 143 47.2269C141.209 46.5975 139.323 46.2865 137.348 46.2865C134.988 46.2865 132.799 46.7382 130.794 47.6415C128.789 48.5448 127.066 49.8109 125.616 51.4324C124.173 53.0613 123.041 55.016 122.228 57.3039C121.414 59.5917 121.014 62.1313 121.014 64.9227C121.014 67.714 121.429 70.224 122.265 72.5119C123.108 74.7997 124.277 76.7544 125.793 78.3759C127.302 80.0048 129.115 81.2709 131.238 82.1742C133.353 83.0701 135.684 83.5218 138.221 83.5218C140.122 83.5218 141.957 83.2552 143.702 82.7221C145.456 82.189 147.002 81.4338 148.333 80.4565C149.665 79.4791 150.723 78.2871 151.514 76.8951C152.298 75.4957 152.69 73.9335 152.69 72.2083C152.69 70.8311 152.483 69.6243 152.061 68.5877ZM128.626 55.8526C129.159 54.0238 129.847 52.4616 130.683 51.1658C131.519 49.8701 132.51 48.878 133.649 48.1746C134.796 47.4786 136.053 47.1306 137.422 47.1306C138.872 47.1306 140.092 47.4786 141.098 48.1746C142.097 48.878 142.926 49.8627 143.569 51.151C144.22 52.432 144.686 53.9868 144.982 55.8156C145.271 57.6444 145.419 59.7028 145.419 61.9907H127.598C127.754 59.7324 128.094 57.6815 128.626 55.8526ZM151.152 75.6734C150.626 76.8433 149.894 77.9021 148.94 78.8572C147.985 79.8049 146.831 80.5824 145.478 81.1821C144.117 81.7818 142.615 82.078 140.965 82.078C139.057 82.078 137.289 81.7374 135.654 81.0636C134.012 80.3898 132.591 79.3533 131.386 77.9391C130.18 76.5323 129.233 74.7479 128.552 72.5859C127.864 70.4239 127.524 67.8769 127.524 64.9227V63.8195C127.524 63.4641 127.524 63.1087 127.561 62.7533H136.468C138.45 62.7533 140.366 62.9014 142.223 63.1901C144.072 63.4863 145.722 63.9898 147.172 64.7154C148.614 65.441 149.768 66.4109 150.634 67.6326C151.499 68.8542 151.928 70.3795 151.928 72.2083C151.928 73.3485 151.669 74.5036 151.152 75.6734Z" fill="url(#paint8_radial_343_499)"/>
<path d="M177.287 75.4809C176.961 76.9543 176.495 78.1908 175.896 79.183C175.304 80.1677 174.616 80.9748 173.839 81.5819C173.07 82.189 172.234 82.6259 171.332 82.8776C170.429 83.1294 169.519 83.2552 168.609 83.2552C167.589 83.2552 166.575 83.0331 165.562 82.5889C164.548 82.1446 163.631 81.4634 162.817 80.5527C162.004 79.6346 161.345 78.4722 160.842 77.0654C160.332 75.6512 160.08 73.9705 160.08 72.0158L160.191 47.0121L154.517 46.7456V45.983C155.56 45.983 156.603 45.7609 157.639 45.3166C158.682 44.8724 159.688 44.2948 160.665 43.5841C161.649 42.8733 162.551 42.0736 163.394 41.1851C164.23 40.2966 164.963 39.3933 165.599 38.4752H166.361V46.2495H177.057V47.0121H166.361L166.25 72.2083C166.25 74.0075 166.412 75.4809 166.745 76.6286C167.071 77.7688 167.485 78.6721 167.981 79.3311C168.476 79.99 169.002 80.4417 169.556 80.686C170.119 80.9304 170.629 81.0488 171.08 81.0488C171.561 81.0488 172.071 80.96 172.604 80.7823C173.137 80.6046 173.662 80.301 174.165 79.8642C174.675 79.4347 175.141 78.8424 175.556 78.0946C175.977 77.3468 176.295 76.399 176.525 75.2514L177.287 75.4809Z" fill="url(#paint9_radial_343_499)"/>
<path d="M200.552 75.4809C200.226 76.9543 199.76 78.1908 199.161 79.183C198.569 80.1677 197.881 80.9748 197.104 81.5819C196.335 82.189 195.499 82.6259 194.597 82.8776C193.694 83.1294 192.784 83.2552 191.874 83.2552C190.854 83.2552 189.84 83.0331 188.827 82.5889C187.813 82.1446 186.896 81.4634 186.082 80.5527C185.268 79.6346 184.61 78.4722 184.107 77.0654C183.597 75.6512 183.345 73.9705 183.345 72.0158L183.456 47.0121L177.782 46.7456V45.983C178.825 45.983 179.868 45.7609 180.904 45.3166C181.947 44.8724 182.953 44.2948 183.937 43.5841C184.913 42.8733 185.816 42.0736 186.659 41.1851C187.495 40.2966 188.227 39.3933 188.864 38.4752H189.626V46.2495H200.322V47.0121H189.626L189.515 72.2083C189.515 74.0075 189.677 75.4809 190.01 76.6286C190.336 77.7688 190.75 78.6721 191.246 79.3311C191.741 79.99 192.266 80.4417 192.821 80.686C193.383 80.9304 193.894 81.0488 194.345 81.0488C194.826 81.0488 195.336 80.96 195.869 80.7823C196.402 80.6046 196.927 80.301 197.43 79.8642C197.94 79.4347 198.406 78.8424 198.821 78.0946C199.242 77.3468 199.56 76.399 199.79 75.2514L200.552 75.4809Z" fill="url(#paint10_radial_343_499)"/>
<path d="M235.379 68.5877C234.957 67.5437 234.373 66.6404 233.625 65.8778C232.878 65.1152 231.983 64.4858 230.94 63.975C229.897 63.4641 228.743 63.0568 227.471 62.7533H235.43C235.43 59.8287 235.031 57.3335 234.232 55.2677C233.433 53.1946 232.36 51.4916 231.014 50.1589C229.668 48.8262 228.1 47.8488 226.309 47.2269C224.527 46.5975 222.64 46.2865 220.658 46.2865C218.298 46.2865 216.116 46.7382 214.111 47.6415C212.106 48.5448 210.375 49.8109 208.933 51.4324C207.483 53.0613 206.351 55.016 205.545 57.3039C204.731 59.5917 204.324 62.1313 204.324 64.9227C204.324 67.714 204.738 70.224 205.582 72.5119C206.418 74.7997 207.594 76.7544 209.103 78.3759C210.612 80.0048 212.424 81.2709 214.547 82.1742C216.663 83.0701 218.993 83.5218 221.538 83.5218C223.439 83.5218 225.266 83.2552 227.02 82.7221C228.765 82.189 230.311 81.4338 231.643 80.4565C232.974 79.4791 234.04 78.2871 234.824 76.8951C235.608 75.4957 236 73.9335 236 72.2083C236 70.8311 235.793 69.6243 235.379 68.5877ZM211.936 55.8526C212.469 54.0238 213.157 52.4616 213.993 51.1658C214.836 49.8701 215.82 48.878 216.966 48.1746C218.106 47.4786 219.363 47.1306 220.732 47.1306C222.182 47.1306 223.41 47.4786 224.408 48.1746C225.414 48.878 226.235 49.8627 226.886 51.151C227.53 52.432 228.003 53.9868 228.292 55.8156C228.588 57.6444 228.728 59.7028 228.728 61.9907H210.908C211.063 59.7324 211.404 57.6815 211.936 55.8526ZM234.461 75.6734C233.944 76.8433 233.204 77.9021 232.249 78.8572C231.295 79.8123 230.149 80.5824 228.788 81.1821C227.426 81.7818 225.925 82.078 224.275 82.078C222.374 82.078 220.599 81.7374 218.964 81.0636C217.329 80.3898 215.901 79.3533 214.703 77.9391C213.49 76.5323 212.55 74.7479 211.862 72.5859C211.174 70.4239 210.834 67.8769 210.834 64.9227V63.8195C210.834 63.4641 210.849 63.1087 210.871 62.7533H219.785C221.76 62.7533 223.676 62.9014 225.533 63.1901C227.382 63.4863 229.039 63.9898 230.482 64.7154C231.931 65.441 233.085 66.4109 233.951 67.6326C234.809 68.8542 235.245 70.3795 235.245 72.2083C235.245 73.3485 234.979 74.5036 234.461 75.6734Z" fill="url(#paint11_radial_343_499)"/>
</g>
<defs>
<radialGradient id="paint0_radial_343_499" cx="0" cy="0" r="1" gradientUnits="userSpaceOnUse" gradientTransform="translate(188.679 102.343) scale(219.659 219.857)">
<stop stop-color="#B53030"/>
<stop offset="0.19" stop-color="#E8A8B4"/>
<stop offset="0.27" stop-color="#ECB864"/>
<stop offset="0.35" stop-color="#DAB0D2"/>
<stop offset="0.47" stop-color="#DC82AC"/>
<stop offset="0.62" stop-color="#B290C3"/>
<stop offset="0.76" stop-color="#D1508B"/>
<stop offset="1" stop-color="#B53030"/>
</radialGradient>
<radialGradient id="paint1_radial_343_499" cx="0" cy="0" r="1" gradientUnits="userSpaceOnUse" gradientTransform="translate(188.679 103.091) scale(219.659 219.857)">
<stop stop-color="#B53030"/>
<stop offset="0.19" stop-color="#E8A8B4"/>
<stop offset="0.27" stop-color="#ECB864"/>
<stop offset="0.35" stop-color="#DAB0D2"/>
<stop offset="0.49" stop-color="#DC82AC"/>
<stop offset="0.64" stop-color="#B290C3"/>
<stop offset="0.8" stop-color="#D1508B"/>
<stop offset="1" stop-color="#B53030"/>
</radialGradient>
<radialGradient id="paint2_radial_343_499" cx="0" cy="0" r="1" gradientUnits="userSpaceOnUse" gradientTransform="translate(188.679 102.343) scale(219.66 219.857)">
<stop stop-color="#B53030"/>
<stop offset="0.14" stop-color="#D17774"/>
<stop offset="0.23" stop-color="#E8A8B4"/>
<stop offset="0.27" stop-color="#ECB864"/>
<stop offset="0.31" stop-color="#DAB0D2"/>
<stop offset="0.46" stop-color="#DC82AC"/>
<stop offset="0.59" stop-color="#B290C3"/>
<stop offset="0.77" stop-color="#D1508B"/>
<stop offset="1" stop-color="#B53030"/>
</radialGradient>
<radialGradient id="paint3_radial_343_499" cx="0" cy="0" r="1" gradientUnits="userSpaceOnUse" gradientTransform="translate(188.679 102.343) scale(219.659 219.857)">
<stop stop-color="#B53030"/>
<stop offset="0.2" stop-color="#E8A8B4"/>
<stop offset="0.27" stop-color="#ECB864"/>
<stop offset="0.33" stop-color="#DAB0D2"/>
<stop offset="0.5" stop-color="#DC82AC"/>
<stop offset="0.65" stop-color="#B290C3"/>
<stop offset="0.78" stop-color="#D1508B"/>
<stop offset="1" stop-color="#B53030"/>
</radialGradient>
<radialGradient id="paint4_radial_343_499" cx="0" cy="0" r="1" gradientUnits="userSpaceOnUse" gradientTransform="translate(188.679 102.343) scale(219.659 219.857)">
<stop stop-color="#B53030"/>
<stop offset="0.21" stop-color="#E8A8B4"/>
<stop offset="0.27" stop-color="#ECB864"/>
<stop offset="0.33" stop-color="#DAB0D2"/>
<stop offset="0.49" stop-color="#DC82AC"/>
<stop offset="0.64" stop-color="#B290C3"/>
<stop offset="0.76" stop-color="#D1508B"/>
<stop offset="1" stop-color="#B53030"/>
</radialGradient>
<radialGradient id="paint5_radial_343_499" cx="0" cy="0" r="1" gradientUnits="userSpaceOnUse" gradientTransform="translate(188.679 102.343) scale(219.659 219.857)">
<stop stop-color="#B53030"/>
<stop offset="0.14" stop-color="#E8A8B4"/>
<stop offset="0.27" stop-color="#ECB864"/>
<stop offset="0.34" stop-color="#DAB0D2"/>
<stop offset="0.5" stop-color="#DC82AC"/>
<stop offset="0.66" stop-color="#B290C3"/>
<stop offset="0.78" stop-color="#D1508B"/>
<stop offset="1" stop-color="#B53030"/>
</radialGradient>
<radialGradient id="paint6_radial_343_499" cx="0" cy="0" r="1" gradientUnits="userSpaceOnUse" gradientTransform="translate(188.679 102.343) scale(219.659 219.857)">
<stop stop-color="#B53030"/>
<stop offset="0.14" stop-color="#E8A8B4"/>
<stop offset="0.27" stop-color="#ECB864"/>
<stop offset="0.34" stop-color="#DAB0D2"/>
<stop offset="0.56" stop-color="#DC82AC"/>
<stop offset="0.68" stop-color="#B290C3"/>
<stop offset="0.86" stop-color="#D1508B"/>
<stop offset="1" stop-color="#B53030"/>
</radialGradient>
<radialGradient id="paint7_radial_343_499" cx="0" cy="0" r="1" gradientUnits="userSpaceOnUse" gradientTransform="translate(188.679 102.343) scale(219.659 219.857)">
<stop stop-color="#B53030"/>
<stop offset="0.14" stop-color="#E8A8B4"/>
<stop offset="0.27" stop-color="#ECB864"/>
<stop offset="0.34" stop-color="#DAB0D2"/>
<stop offset="0.5" stop-color="#DC82AC"/>
<stop offset="0.69" stop-color="#B290C3"/>
<stop offset="0.81" stop-color="#D1508B"/>
<stop offset="1" stop-color="#B53030"/>
</radialGradient>
<radialGradient id="paint8_radial_343_499" cx="0" cy="0" r="1" gradientUnits="userSpaceOnUse" gradientTransform="translate(188.679 102.343) scale(219.659 219.857)">
<stop stop-color="#B53030"/>
<stop offset="0.14" stop-color="#E8A8B4"/>
<stop offset="0.27" stop-color="#ECB864"/>
<stop offset="0.41" stop-color="#DAB0D2"/>
<stop offset="0.56" stop-color="#DC82AC"/>
<stop offset="0.71" stop-color="#B290C3"/>
<stop offset="0.86" stop-color="#D1508B"/>
<stop offset="1" stop-color="#B53030"/>
</radialGradient>
<radialGradient id="paint9_radial_343_499" cx="0" cy="0" r="1" gradientUnits="userSpaceOnUse" gradientTransform="translate(188.671 84.1363) scale(219.6 219.798)">
<stop stop-color="#B53030"/>
<stop offset="0.14" stop-color="#E8A8B4"/>
<stop offset="0.27" stop-color="#ECB864"/>
<stop offset="0.41" stop-color="#DAB0D2"/>
<stop offset="0.56" stop-color="#DC82AC"/>
<stop offset="0.71" stop-color="#B290C3"/>
<stop offset="0.86" stop-color="#D1508B"/>
<stop offset="1" stop-color="#B53030"/>
</radialGradient>
<radialGradient id="paint10_radial_343_499" cx="0" cy="0" r="1" gradientUnits="userSpaceOnUse" gradientTransform="translate(188.679 102.343) scale(219.659 219.857)">
<stop stop-color="#B53030"/>
<stop offset="0.14" stop-color="#E8A8B4"/>
<stop offset="0.27" stop-color="#ECB864"/>
<stop offset="0.41" stop-color="#DAB0D2"/>
<stop offset="0.56" stop-color="#DC82AC"/>
<stop offset="0.71" stop-color="#B290C3"/>
<stop offset="0.86" stop-color="#D1508B"/>
<stop offset="1" stop-color="#B53030"/>
</radialGradient>
<radialGradient id="paint11_radial_343_499" cx="0" cy="0" r="1" gradientUnits="userSpaceOnUse" gradientTransform="translate(188.679 102.343) scale(219.659 219.857)">
<stop stop-color="#B53030"/>
<stop offset="0.14" stop-color="#E8A8B4"/>
<stop offset="0.27" stop-color="#ECB864"/>
<stop offset="0.41" stop-color="#DAB0D2"/>
<stop offset="0.56" stop-color="#DC82AC"/>
<stop offset="0.71" stop-color="#B290C3"/>
<stop offset="0.86" stop-color="#D1508B"/>
<stop offset="1" stop-color="#B53030"/>
</radialGradient>
<clipPath id="clip0_343_499">
<rect width="236" height="83" fill="white" transform="translate(0 0.714287)"/>
</clipPath>
</defs>
</svg>
