<?xml version="1.0" standalone="no"?>
<!DOCTYPE svg PUBLIC "-//W3C//DTD SVG 20010904//EN"
 "http://www.w3.org/TR/2001/REC-SVG-20010904/DTD/svg10.dtd">
<svg version="1.0" xmlns="http://www.w3.org/2000/svg"
 width="151.000000pt" height="96.000000pt" viewBox="0 0 151.000000 96.000000"
 preserveAspectRatio="xMidYMid meet">

<g transform="translate(0.000000,96.000000) scale(0.100000,-0.100000)"
fill="#4c3bcf" stroke="none">
<path d="M350 535 l0 -215 40 0 39 0 3 142 3 142 85 -142 85 -142 43 0 42 0 0
215 0 215 -40 0 -40 0 0 -140 c0 -77 -3 -140 -7 -140 -5 0 -46 63 -92 140
l-84 140 -38 0 -39 0 0 -215z"/>
<path d="M770 535 l0 -215 40 0 40 0 0 75 0 75 62 0 c117 0 187 61 175 152
-12 93 -72 127 -219 128 l-98 0 0 -215z m219 119 c26 -34 27 -68 1 -94 -16
-16 -33 -20 -80 -20 l-60 0 0 70 0 70 59 0 c52 0 62 -3 80 -26z"/>
<path d="M1185 421 c-37 -16 -60 -51 -60 -93 0 -33 6 -45 33 -69 42 -38 82
-38 124 0 27 24 33 36 33 70 0 67 -71 117 -130 92z"/>
</g>
</svg>
